<svg width="185" height="157" viewBox="0 0 185 157" fill="none" xmlns="http://www.w3.org/2000/svg">
<path d="M173.236 14.6267V15.4039C173.236 15.4494 173.227 15.4944 173.21 15.5365C173.193 15.5785 173.167 15.6167 173.135 15.6489C173.103 15.681 173.065 15.7064 173.023 15.7237C172.981 15.7409 172.936 15.7497 172.89 15.7493H105.004V14.2813H172.89C172.936 14.2809 172.981 14.2897 173.023 14.3069C173.065 14.3241 173.103 14.3496 173.135 14.3817C173.167 14.4139 173.193 14.4521 173.21 14.4941C173.227 14.5362 173.236 14.5812 173.236 14.6267Z" fill="#035492" stroke="#035492" stroke-width="2" stroke-miterlimit="10"/>
<path d="M108.65 109.338C101.409 117.48 97.4166 128.001 97.433 138.896H1.05066V109.338H108.65Z" fill="#035492" stroke="#035492" stroke-width="2" stroke-miterlimit="10"/>
<path d="M176.959 107.98C176.975 110.758 176.991 113.536 177.007 116.314V138.897H102.91C108.617 125.026 119.556 113.961 133.36 108.096L176.964 107.98H176.959Z" fill="#FCCC0D" stroke="#FFCC00" stroke-width="2" stroke-miterlimit="10"/>
<path d="M169.177 102.798C162.932 101.618 156.548 101.353 150.226 102.011C145.508 102.51 133.854 103.863 121.86 111.952C109.123 120.544 103.173 131.898 100.827 137.154C101.01 134.208 102.358 117.119 116.377 104.16C117.13 103.463 117.921 102.778 118.751 102.107C120.607 100.605 122.575 99.2478 124.638 98.048C141.646 88.1552 159.486 92.3628 161.681 92.9145C128.87 93.567 122.993 106.391 122.904 106.588C129.431 101.554 137.276 98.5162 145.491 97.8424C153.706 97.1686 161.941 98.8871 169.201 102.79L169.177 102.798Z" fill="#035492" stroke="#035492" stroke-width="2" stroke-miterlimit="10"/>
<path d="M122.892 106.596L122.889 106.598" stroke="#231F20" stroke-width="2" stroke-miterlimit="10"/>
<path d="M5.27747 106.72C55.7895 39.1023 114.424 36.502 114.424 36.502C114.424 36.502 70.8133 51.2691 37.1338 106.711L5.27747 106.72Z" fill="#FCCC0D" stroke="#FFCC00" stroke-width="2" stroke-miterlimit="10"/>
<path d="M114.424 39.3262C114.424 39.3262 78.5855 68.0833 70.8133 107.721H43.613C76.5225 50.7254 114.424 39.3262 114.424 39.3262Z" fill="#035492" stroke="#035492" stroke-width="2" stroke-miterlimit="10"/>
<path d="M95.4594 2.31641C92.6408 2.31641 90.3547 7.94165 90.3547 14.8814C90.3547 21.8212 92.6384 27.4465 95.457 27.4465C98.2756 27.4465 100.559 21.8212 100.559 14.8814C100.559 7.94165 98.2709 2.31641 95.4594 2.31641ZM95.3323 15.9633C95.0608 15.9638 94.7953 15.8837 94.5693 15.7332C94.3434 15.5828 94.1671 15.3686 94.0629 15.1179C93.9587 14.8673 93.9312 14.5913 93.9838 14.325C94.0365 14.0586 94.167 13.8139 94.3588 13.6218C94.5506 13.4297 94.7951 13.2987 95.0613 13.2456C95.3276 13.1925 95.6036 13.2195 95.8544 13.3233C96.1053 13.4271 96.3197 13.6029 96.4706 13.8286C96.6215 14.0543 96.702 14.3197 96.702 14.5912C96.702 14.9547 96.5578 15.3033 96.301 15.5606C96.0442 15.8178 95.6958 15.9627 95.3323 15.9633Z" fill="#035492" stroke="#035492" stroke-width="2" stroke-miterlimit="10"/>
<path d="M96.702 14.5924C96.7025 14.864 96.6224 15.1296 96.4718 15.3556C96.3212 15.5816 96.1069 15.7579 95.8561 15.862C95.6053 15.9662 95.3292 15.9935 95.0628 15.9407C94.7964 15.8878 94.5517 15.7571 94.3596 15.565C94.1676 15.373 94.0369 15.1283 93.984 14.8619C93.9311 14.5955 93.9585 14.3194 94.0627 14.0686C94.1668 13.8178 94.3431 13.6035 94.5691 13.4529C94.7951 13.3023 95.0607 13.2222 95.3323 13.2227C95.6954 13.2233 96.0434 13.3678 96.3001 13.6245C96.5569 13.8813 96.7014 14.2293 96.702 14.5924Z" stroke="#231F20" stroke-width="2" stroke-miterlimit="10"/>
<path d="M179.216 14.8053C179.216 21.7451 176.932 27.3703 174.114 27.3703C171.295 27.3703 169.223 22.2488 169.026 15.7504H172.89C172.936 15.7507 172.981 15.742 173.023 15.7248C173.065 15.7075 173.103 15.6821 173.135 15.6499C173.168 15.6178 173.193 15.5796 173.21 15.5375C173.227 15.4955 173.236 15.4504 173.236 15.405V14.6278C173.236 14.5823 173.227 14.5372 173.21 14.4952C173.193 14.4531 173.168 14.4149 173.135 14.3828C173.103 14.3507 173.065 14.3252 173.023 14.308C172.981 14.2907 172.936 14.282 172.89 14.2823H169.016C169.117 7.58481 171.367 2.24023 174.114 2.24023C176.861 2.24023 179.216 7.86548 179.216 14.8053Z" fill="#035492" stroke="#035492" stroke-width="2" stroke-miterlimit="10"/>
<path d="M172 14.4706V15.5294C172 15.5913 171.994 15.6527 171.982 15.71C171.97 15.7673 171.951 15.8193 171.929 15.8631C171.906 15.9069 171.879 15.9416 171.849 15.9651C171.819 15.9885 171.787 16.0004 171.755 16H169.01C169.01 15.5752 169 15.1471 169 14.7124C169 14.4739 169 14.2353 169 14H171.751C171.784 13.9996 171.816 14.0115 171.845 14.0349C171.875 14.0584 171.902 14.0931 171.925 14.1369C171.948 14.1807 171.966 14.2327 171.978 14.29C171.991 14.3473 171.997 14.4087 171.997 14.4706H172Z" fill="#283134" stroke="#283134" stroke-width="2" stroke-miterlimit="10"/>
<path d="M131.611 26.8047L130.23 33.7997L135.843 37.0812H137.138L140.593 32.8497L137.311 30.9499L137.57 27.9273L131.611 26.8047Z" fill="#035492" stroke="#035492" stroke-width="2" stroke-miterlimit="10"/>
<path d="M161.405 15.75L148.691 34.5976C148.244 35.2596 147.62 35.7825 146.89 36.1064L138.055 40.0093C137.681 40.1748 137.277 40.2603 136.869 40.2603C136.46 40.2603 136.056 40.1748 135.682 40.0093L126.14 35.7442C125.701 35.5477 125.329 35.2287 125.067 34.8254L112.771 15.7548" stroke="#035492" stroke-width="2" stroke-miterlimit="10"/>
<path d="M166.155 15.75L149.5 40.8177C149.206 41.2587 148.987 41.745 148.852 42.257L145.326 55.7336C145.281 55.9022 145.296 56.0809 145.368 56.2399C145.439 56.3989 145.563 56.5284 145.719 56.6068L164.773 66.2596L149.927 90.5309C149.897 90.5785 149.88 90.6326 149.877 90.6883C149.874 90.744 149.885 90.7996 149.909 90.8501C149.933 90.9006 149.969 90.9443 150.014 90.9774C150.059 91.0105 150.111 91.0318 150.166 91.0395L153.805 91.5576" stroke="#035492" stroke-width="2" stroke-miterlimit="10"/>
<path d="M107.863 15.75C107.863 15.75 126.202 41.7556 131.468 54.1504C132.097 55.6275 132.182 57.2798 131.707 58.8137C129.309 66.5523 121.153 92.5339 116.372 104.151" stroke="#035492" stroke-width="2" stroke-miterlimit="10"/>
<path d="M124.631 98.0485L141.715 70.4141L152.51 71.7958L145.947 91.5573" stroke="#035492" stroke-width="2" stroke-miterlimit="10"/>
<path d="M96.702 14.5924C96.7025 14.864 96.6224 15.1296 96.4718 15.3556C96.3212 15.5816 96.1069 15.7579 95.8561 15.862C95.6053 15.9662 95.3292 15.9935 95.0628 15.9407C94.7964 15.8878 94.5517 15.7571 94.3596 15.565C94.1676 15.373 94.0369 15.1283 93.984 14.8619C93.9311 14.5955 93.9585 14.3194 94.0627 14.0686C94.1668 13.8178 94.3431 13.6035 94.5691 13.4529C94.7951 13.3023 95.0607 13.2222 95.3323 13.2227C95.6954 13.2233 96.0434 13.3678 96.3001 13.6245C96.5569 13.8813 96.7014 14.2293 96.702 14.5924Z" fill="white" stroke="#035492" stroke-width="2" stroke-miterlimit="10"/>
<path d="M95.3298 15.2712C95.6981 15.2712 95.9967 14.9727 95.9967 14.6044C95.9967 14.2361 95.6981 13.9375 95.3298 13.9375C94.9615 13.9375 94.663 14.2361 94.663 14.6044C94.663 14.9727 94.9615 15.2712 95.3298 15.2712Z" fill="#231F20" stroke="#231F20" stroke-width="2" stroke-miterlimit="10"/>
<path d="M15.2578 115.671L20.6787 133H16.3115L15.2578 129.433H9.64648L8.55469 133H5L10.5479 115.671H15.2578ZM10.624 126.233H14.3057L12.4648 120.152L10.624 126.233ZM26.6709 129.572H33.5645V133H22.5576V115.671H26.6709V129.572ZM45.2188 115.671V119.099H40.9277V133H36.8145V119.099H32.498V115.671H45.2188ZM51.0078 115.671V133H46.958V115.671H51.0078ZM68.1592 115.671V126.462C68.1592 128.205 67.9603 129.505 67.5625 130.359C67.1647 131.206 66.4284 131.904 65.3535 132.454C64.2871 132.996 62.9202 133.267 61.2529 133.267C59.5856 133.267 58.2568 133.021 57.2666 132.53C56.2848 132.039 55.5485 131.341 55.0576 130.436C54.5667 129.53 54.3213 128.205 54.3213 126.462V115.671H58.7266V126.462C58.7266 127.393 58.8027 128.078 58.9551 128.519C59.1159 128.959 59.429 129.31 59.8945 129.572C60.3685 129.826 60.9482 129.953 61.6338 129.953C62.3955 129.953 63.0133 129.826 63.4873 129.572C63.9697 129.318 64.2871 128.984 64.4395 128.569C64.6003 128.146 64.6807 127.444 64.6807 126.462V115.671H68.1592ZM83.3555 119.479L79.9023 120.635C79.4368 119.264 78.4508 118.578 76.9443 118.578C75.3363 118.578 74.5322 119.099 74.5322 120.14C74.5322 120.554 74.6803 120.906 74.9766 121.193C75.2812 121.481 75.9626 121.731 77.0205 121.942C78.7894 122.298 80.0843 122.658 80.9053 123.021C81.7262 123.385 82.416 123.974 82.9746 124.786C83.5417 125.59 83.8252 126.492 83.8252 127.49C83.8252 129.056 83.2201 130.41 82.0098 131.553C80.8079 132.695 79.0221 133.267 76.6523 133.267C74.875 133.267 73.36 132.865 72.1074 132.061C70.8633 131.248 70.0423 130.046 69.6445 128.455L73.4023 127.604C73.8255 129.221 75.002 130.029 76.9316 130.029C77.8626 130.029 78.5566 129.852 79.0137 129.496C79.4707 129.132 79.6992 128.701 79.6992 128.201C79.6992 127.693 79.4919 127.3 79.0771 127.021C78.6624 126.741 77.8626 126.479 76.6777 126.233C74.4688 125.776 72.8945 125.154 71.9551 124.367C71.0156 123.572 70.5459 122.412 70.5459 120.889C70.5459 119.348 71.1045 118.049 72.2217 116.991C73.3473 115.933 74.8708 115.404 76.792 115.404C80.1943 115.404 82.3822 116.763 83.3555 119.479Z" fill="#FCCC0D"/>
<path d="M139.234 123.732V133H137.381C137.245 132.348 137.051 131.684 136.797 131.007C135.561 132.513 133.987 133.267 132.074 133.267C129.814 133.267 128.054 132.458 126.793 130.842C125.54 129.225 124.914 127.135 124.914 124.57C124.914 121.811 125.583 119.594 126.92 117.918C128.266 116.242 130.09 115.404 132.392 115.404C134.321 115.404 135.879 115.946 137.063 117.029C138.248 118.113 138.972 119.556 139.234 121.358L135.375 121.866C135.062 119.767 134.067 118.718 132.392 118.718C131.291 118.718 130.458 119.217 129.891 120.216C129.332 121.206 129.053 122.624 129.053 124.469C129.053 126.246 129.357 127.604 129.967 128.544C130.576 129.483 131.444 129.953 132.569 129.953C133.297 129.953 133.945 129.716 134.512 129.242C135.087 128.768 135.375 128.011 135.375 126.97H132.112V123.732H139.234ZM154.329 115.671L148.883 125.7V133H144.82V125.7L139.374 115.671H144.084L147.397 122.247L150.686 115.671H154.329ZM163.025 133L158.76 118.87V133H155.357V115.671H161.68L164.714 126.043L167.913 115.671H174.248V133H170.16V118.87L165.806 133H163.025Z" fill="#035492"/>
<path d="M107.863 15.75H112.786L125.082 34.8206L137.095 40.2588L148.703 34.5976L161.417 15.75H166.167L148.852 42.2594L145.326 55.7336L145.719 56.6068L164.773 66.2596L149.926 90.5285C149.926 90.5285 150.466 91.8287 153.805 91.5552H145.947L152.51 71.8057L141.715 70.424L124.631 98.0584L116.369 104.171L131.705 58.8329C131.705 58.8329 132.619 54.918 131.465 54.1696C131.465 54.1696 116.957 27.629 107.861 15.7692L107.863 15.75Z" fill="#035492" stroke="#035492" stroke-width="2" stroke-miterlimit="10"/>
<path d="M105.013 15.7494C104.86 19.8474 103.509 23.8106 101.127 27.1486C102.994 23.3225 103.944 19.1144 103.902 14.8575C103.86 10.6007 102.828 6.41194 100.887 2.62305C103.691 6.41459 105.144 11.0357 105.016 15.7494H105.013Z" fill="#035492" stroke="#035492" stroke-width="2" stroke-miterlimit="10"/>
<path d="M183.591 15.3666C183.438 19.4646 182.087 23.4278 179.705 26.7658C181.572 22.94 182.523 18.7321 182.482 14.4753C182.441 10.2184 181.41 6.0295 179.47 2.24023C182.271 6.0327 183.722 10.6537 183.591 15.3666Z" fill="#035492" stroke="#035492" stroke-width="2" stroke-miterlimit="10"/>
<path d="M7.56641 144.335V153H5.57324V149.426H2.86279V153H0.869629V144.335H2.86279V147.712H5.57324V144.335H7.56641ZM15.6833 145.986H11.551V147.763H14.801V149.395H11.551V151.286H15.6833V153H9.48797V144.335H15.6833V145.986ZM21.3627 144.335L24.0731 153H21.8895L21.3627 151.216H18.557L18.0111 153H16.2337L19.0077 144.335H21.3627ZM19.0458 149.617H20.8866L19.9662 146.576L19.0458 149.617ZM27.2642 151.286H30.711V153H25.2076V144.335H27.2642V151.286ZM36.7331 144.335V146.049H34.5876V153H32.531V146.049H30.3728V144.335H36.7331ZM44.4945 144.335V153H42.5014V149.426H39.7909V153H37.7978V144.335H39.7909V147.712H42.5014V144.335H44.4945ZM54.1267 144.335L56.8372 153H54.6536L54.1267 151.216H51.3211L50.7752 153H48.9978L51.7717 144.335H54.1267ZM51.8098 149.617H53.6506L52.7302 146.576L51.8098 149.617ZM64.643 144.335V153H62.9101L59.5141 147.147C59.5183 147.296 59.5226 147.393 59.5268 147.439C59.5437 147.588 59.5522 147.712 59.5522 147.814V153H57.9716V144.335H60.1616L63.1132 149.445C63.0878 149.191 63.0751 148.999 63.0751 148.868V144.335H64.643ZM66.5709 144.335H69.2179C70.297 144.335 71.101 144.486 71.63 144.786C72.159 145.082 72.6329 145.554 73.0519 146.202C73.4708 146.845 73.6803 147.66 73.6803 148.646C73.6803 149.885 73.3142 150.922 72.5821 151.756C71.85 152.585 70.8408 153 69.5543 153H66.5709V144.335ZM68.5641 145.929V151.369H69.402C70.1425 151.369 70.6927 151.094 71.0524 150.543C71.4121 149.989 71.5919 149.34 71.5919 148.595C71.5919 148.07 71.4882 147.585 71.2809 147.141C71.0778 146.693 70.8238 146.379 70.5192 146.202C70.2145 146.02 69.8484 145.929 69.421 145.929H68.5641ZM84.8042 146.049H80.748V147.992H83.9536V149.61H80.748V153H78.6406V144.335H84.8042V146.049ZM88.0714 144.335V153H86.0465V144.335H88.0714ZM95.5028 144.335V146.049H93.3573V153H91.3006V146.049H89.1424V144.335H95.5028ZM103.239 144.335V153H101.506L98.1099 147.147C98.1141 147.296 98.1183 147.393 98.1226 147.439C98.1395 147.588 98.148 147.712 98.148 147.814V153H96.5674V144.335H98.7573L101.709 149.445C101.684 149.191 101.671 148.999 101.671 148.868V144.335H103.239ZM111.356 145.986H107.223V147.763H110.473V149.395H107.223V151.286H111.356V153H105.16V144.335H111.356V145.986ZM118.762 146.24L117.035 146.817C116.802 146.132 116.309 145.789 115.556 145.789C114.752 145.789 114.35 146.049 114.35 146.57C114.35 146.777 114.424 146.953 114.572 147.097C114.724 147.241 115.065 147.365 115.594 147.471C116.479 147.649 117.126 147.829 117.537 148.011C117.947 148.193 118.292 148.487 118.571 148.893C118.855 149.295 118.996 149.746 118.996 150.245C118.996 151.028 118.694 151.705 118.089 152.276C117.488 152.848 116.595 153.133 115.41 153.133C114.521 153.133 113.764 152.932 113.138 152.53C112.516 152.124 112.105 151.523 111.906 150.728L113.785 150.302C113.997 151.111 114.585 151.515 115.55 151.515C116.015 151.515 116.362 151.426 116.591 151.248C116.819 151.066 116.933 150.85 116.933 150.601C116.933 150.347 116.83 150.15 116.622 150.01C116.415 149.871 116.015 149.739 115.423 149.617C114.318 149.388 113.531 149.077 113.061 148.684C112.592 148.286 112.357 147.706 112.357 146.944C112.357 146.174 112.636 145.525 113.195 144.996C113.758 144.467 114.519 144.202 115.48 144.202C117.181 144.202 118.275 144.881 118.762 146.24ZM126.51 146.24L124.784 146.817C124.551 146.132 124.058 145.789 123.305 145.789C122.501 145.789 122.099 146.049 122.099 146.57C122.099 146.777 122.173 146.953 122.321 147.097C122.473 147.241 122.814 147.365 123.343 147.471C124.227 147.649 124.875 147.829 125.285 148.011C125.696 148.193 126.041 148.487 126.32 148.893C126.603 149.295 126.745 149.746 126.745 150.245C126.745 151.028 126.443 151.705 125.837 152.276C125.237 152.848 124.344 153.133 123.159 153.133C122.27 153.133 121.513 152.932 120.886 152.53C120.264 152.124 119.854 151.523 119.655 150.728L121.534 150.302C121.745 151.111 122.334 151.515 123.298 151.515C123.764 151.515 124.111 151.426 124.339 151.248C124.568 151.066 124.682 150.85 124.682 150.601C124.682 150.347 124.579 150.15 124.371 150.01C124.164 149.871 123.764 149.739 123.171 149.617C122.067 149.388 121.28 149.077 120.81 148.684C120.34 148.286 120.106 147.706 120.106 146.944C120.106 146.174 120.385 145.525 120.943 144.996C121.506 144.467 122.268 144.202 123.229 144.202C124.93 144.202 126.024 144.881 126.51 146.24ZM138.707 147.56L136.58 147.693C136.551 146.47 136.075 145.859 135.152 145.859C134.094 145.859 133.565 146.8 133.565 148.684C133.565 149.771 133.709 150.51 133.997 150.899C134.285 151.284 134.687 151.477 135.203 151.477C136.041 151.477 136.553 150.931 136.739 149.839L138.707 149.959C138.58 150.996 138.193 151.785 137.545 152.327C136.902 152.865 136.113 153.133 135.178 153.133C134.031 153.133 133.098 152.738 132.378 151.946C131.663 151.155 131.306 150.061 131.306 148.665C131.306 147.357 131.653 146.286 132.347 145.453C133.041 144.619 133.989 144.202 135.19 144.202C137.272 144.202 138.445 145.321 138.707 147.56ZM146.265 145.986H142.133V147.763H145.383V149.395H142.133V151.286H146.265V153H140.07V144.335H146.265V145.986ZM154.357 144.335V153H152.624L149.228 147.147C149.232 147.296 149.236 147.393 149.241 147.439C149.257 147.588 149.266 147.712 149.266 147.814V153H147.685V144.335H149.875L152.827 149.445C152.802 149.191 152.789 148.999 152.789 148.868V144.335H154.357ZM161.775 144.335V146.049H159.63V153H157.573V146.049H155.415V144.335H161.775ZM169.029 145.986H164.897V147.763H168.147V149.395H164.897V151.286H169.029V153H162.834V144.335H169.029V145.986ZM172.493 149.566V153H170.449V144.335H174.258C174.96 144.335 175.523 144.418 175.946 144.583C176.374 144.744 176.727 145.042 177.006 145.478C177.285 145.914 177.425 146.398 177.425 146.932C177.425 147.973 176.924 148.72 175.921 149.172L177.52 153H175.28L173.947 149.566H172.493ZM172.493 145.878V148.087H173.737C174.143 148.087 174.437 148.059 174.619 148.004C174.806 147.945 174.971 147.818 175.115 147.624C175.258 147.425 175.33 147.198 175.33 146.944C175.33 146.703 175.258 146.487 175.115 146.297C174.971 146.106 174.814 145.99 174.645 145.948C174.476 145.901 174.158 145.878 173.693 145.878H172.493Z" fill="#035492"/>
</svg>
