<svg width="107" height="107" viewBox="0 0 107 107" fill="none" xmlns="http://www.w3.org/2000/svg">
<path fill-rule="evenodd" clip-rule="evenodd" d="M53.425 107C38.7181 107 25.3618 100.997 15.6073 91.3927C6.0028 81.6382 -2.18674e-06 68.2819 -2.18674e-06 53.575C-2.18674e-06 38.7181 6.0028 25.3619 15.6073 15.6073C25.3618 6.00281 38.7181 0 53.425 0C68.2819 0 81.6381 6.00281 91.3927 15.6073C100.997 25.3619 107 38.7181 107 53.575C107 68.2819 100.997 81.6382 91.3927 91.3927C81.6381 100.997 68.2819 107 53.425 107ZM32.115 53.575L58.5273 79.8373L65.2805 73.0842L45.9215 53.575L65.2805 34.0659L58.5273 27.1627L32.115 53.575Z" fill="#FFCC00"/>
</svg>
