<svg width="109" height="109" viewBox="0 0 109 109" fill="none" xmlns="http://www.w3.org/2000/svg">
<path fill-rule="evenodd" clip-rule="evenodd" d="M54.425 108C39.7181 108 26.3618 101.997 16.6073 92.3927C7.0028 82.6382 0.999998 69.2819 0.999998 54.575C0.999998 39.7181 7.0028 26.3619 16.6073 16.6073C26.3618 7.00281 39.7181 1 54.425 1C69.2819 1 82.6381 7.00281 92.3927 16.6073C101.997 26.3619 108 39.7181 108 54.575C108 69.2819 101.997 82.6382 92.3927 92.3927C82.6381 101.997 69.2819 108 54.425 108ZM33.115 54.575L59.5273 80.8373L66.2805 74.0842L46.9215 54.575L66.2805 35.0659L59.5273 28.1627L33.115 54.575Z" stroke="#FFCC00" stroke-width="2"/>
<line y1="-5" x2="28.2843" y2="-5" transform="matrix(-0.707107 0.707107 0.707107 0.707107 66 36)" stroke="#FFCC00" stroke-width="10"/>
<line y1="-4.5" x2="36.7696" y2="-4.5" transform="matrix(-0.707107 -0.707107 -0.707107 0.707107 60 81)" stroke="#FFCC00" stroke-width="9"/>
</svg>
