<svg width="109" height="109" viewBox="0 0 109 109" fill="none" xmlns="http://www.w3.org/2000/svg">
<path fill-rule="evenodd" clip-rule="evenodd" d="M54.575 108C69.2819 108 82.6382 101.997 92.3927 92.3927C101.997 82.6382 108 69.2819 108 54.575C108 39.7181 101.997 26.3619 92.3927 16.6073C82.6382 7.00281 69.2819 1 54.575 1C39.7181 1 26.3619 7.00281 16.6073 16.6073C7.00281 26.3619 1 39.7181 1 54.575C1 69.2819 7.00281 82.6382 16.6073 92.3927C26.3619 101.997 39.7181 108 54.575 108ZM75.885 54.575L49.4727 80.8373L42.7195 74.0842L62.0785 54.575L42.7195 35.0659L49.4727 28.1627L75.885 54.575Z" stroke="#FFCC00" stroke-width="2"/>
<line x1="46.5355" y1="32.4645" x2="66.5355" y2="52.4645" stroke="#FFCC00" stroke-width="10"/>
<line x1="45.818" y1="77.818" x2="71.818" y2="51.818" stroke="#FFCC00" stroke-width="9"/>
</svg>
