<svg width="107" height="107" viewBox="0 0 107 107" fill="none" xmlns="http://www.w3.org/2000/svg">
<path fill-rule="evenodd" clip-rule="evenodd" d="M53.575 107C68.2819 107 81.6382 100.997 91.3927 91.3927C100.997 81.6382 107 68.2819 107 53.575C107 38.7181 100.997 25.3619 91.3927 15.6073C81.6382 6.00281 68.2819 0 53.575 0C38.7181 0 25.3619 6.00281 15.6073 15.6073C6.00281 25.3619 0 38.7181 0 53.575C0 68.2819 6.00281 81.6382 15.6073 91.3927C25.3619 100.997 38.7181 107 53.575 107ZM74.885 53.575L48.4727 79.8373L41.7195 73.0842L61.0785 53.575L41.7195 34.0659L48.4727 27.1627L74.885 53.575Z" fill="#FFCC00"/>
</svg>
