<svg width="52" height="61" viewBox="0 0 52 61" fill="none" xmlns="http://www.w3.org/2000/svg">
<path d="M43.8745 49.1264H40.3221V46.1104C40.3221 45.549 39.8429 45.0947 39.252 45.0947H32.3067C31.7157 45.0947 31.2366 45.549 31.2366 46.1104V49.1264H13.7086V46.1104C13.7086 45.549 13.2294 45.0947 12.6384 45.0947H5.69317C5.10222 45.0947 4.62305 45.549 4.62305 46.1104V49.1264H1.07012C0.47917 49.1264 0 49.5807 0 50.142V55.9101C0 56.4715 0.47917 56.9258 1.07012 56.9258H4.62256V59.9531C4.62256 60.5145 5.10173 60.9688 5.69268 60.9688H12.638C13.2289 60.9688 13.7081 60.5145 13.7081 59.9531V56.9262H31.2361V59.9531C31.2361 60.5145 31.7152 60.9688 32.3062 60.9688H39.2515C39.8424 60.9688 40.3216 60.5145 40.3216 59.9531V56.9262H43.8745C44.4655 56.9262 44.9446 56.4719 44.9446 55.9106V50.1424C44.9446 49.5807 44.4655 49.1264 43.8745 49.1264ZM2.13976 54.895V51.1581H4.62207V54.895H2.13976ZM11.5678 58.9375H6.7628V47.1261H11.5678V58.9375ZM13.7081 54.895V51.1581H31.2361V54.895H13.7081ZM38.1815 58.9375H33.3764V47.1261H38.1815V58.9375ZM42.804 54.895H40.3217V51.1581L42.804 51.1576V54.895Z" fill="url(#paint0_linear_358_184)"/>
<path d="M50.2954 4.91577H38.5241V1.04688C38.5241 0.485565 38.0449 0.03125 37.4539 0.03125H22.4722C21.8813 0.03125 21.4021 0.485565 21.4021 1.04688V4.91577H9.63076C9.03981 4.91577 8.56064 5.37008 8.56064 5.93139V40.6565C8.58118 41.9799 10.6761 42.0013 10.7009 40.6565V6.94702H22.4464C22.499 6.95654 37.4245 6.95654 37.4795 6.94702H49.225V52.844H48.1549C47.564 52.844 47.0848 53.2983 47.0848 53.8596C47.0848 54.4209 47.564 54.8752 48.1549 54.8752H50.2952C50.8861 54.8752 51.3653 54.4209 51.3653 53.8596V5.93139C51.3653 5.37008 50.8861 4.91577 50.2952 4.91577H50.2954ZM23.5423 2.0625H36.3838V4.91577H23.5423V2.0625Z" fill="url(#paint1_linear_358_184)"/>
<path d="M18.1477 21.7385C18.5466 22.1316 19.2623 22.1321 19.6612 21.7385L25.3687 16.3212C26.3528 15.3804 24.8503 13.9486 23.8552 14.8853L18.9045 19.5843L16.8077 17.594C15.8145 16.659 14.3091 18.0873 15.2947 19.0303C15.2942 19.0299 18.1477 21.7385 18.1477 21.7385Z" fill="url(#paint2_linear_358_184)"/>
<path d="M15.2949 28.5094L18.1484 31.2181C18.3491 31.4085 18.6214 31.5155 18.9051 31.5155C19.1889 31.5155 19.4612 31.4085 19.6619 31.2181L25.3694 25.8017C26.353 24.8609 24.8515 23.4291 23.8559 24.3658L18.9052 29.064L16.8084 27.0736C15.8147 26.1382 14.3093 27.5665 15.2949 28.5095V28.5094Z" fill="url(#paint3_linear_358_184)"/>
<path d="M15.2949 37.9889L18.1484 40.6966C18.3577 40.8952 18.6314 40.994 18.9051 40.994C19.1789 40.994 19.4526 40.8947 19.6619 40.6966L25.3694 35.2802C26.353 34.3394 24.8515 32.9076 23.8559 33.8443L18.9052 38.5425L16.8084 36.5529C15.8147 35.6176 14.3093 37.0458 15.2949 37.9889Z" fill="url(#paint4_linear_358_184)"/>
<path d="M39.5945 28.8098C45.9035 28.6189 45.9102 19.9244 39.5945 19.7344C33.2775 19.9253 33.2871 28.6202 39.5945 28.8098ZM39.5945 21.7661C43.0753 21.8527 43.0663 26.6923 39.5945 26.779C36.1218 26.6919 36.1147 21.8523 39.5945 21.7661Z" fill="url(#paint5_linear_358_184)"/>
<path d="M39.5938 30.2972C36.6438 30.2972 34.2432 32.5755 34.2432 35.3753V38.6253C34.2432 39.1866 34.7223 39.6409 35.3133 39.6409H43.8743C44.4652 39.6409 44.9444 39.1866 44.9444 38.6253V35.3753C45.0108 32.658 42.4663 30.2327 39.5938 30.2972ZM42.8041 37.6097H36.3834V35.3753C36.3834 33.6949 37.8232 32.3284 39.5938 32.3284C41.3255 32.2926 42.841 33.7403 42.8041 35.3753V37.6097Z" fill="url(#paint6_linear_358_184)"/>
<path d="M43.8747 10.1875H31.0332C30.4422 10.1875 29.9631 10.6418 29.9631 11.2031V16.2813C29.9631 16.8426 30.4422 17.2969 31.0332 17.2969H43.8747C44.4656 17.2969 44.9448 16.8426 44.9448 16.2813V11.2031C44.9448 10.6418 44.4656 10.1875 43.8747 10.1875ZM42.8045 15.2656H32.1033V12.2188H42.8045V15.2656Z" fill="url(#paint7_linear_358_184)"/>
<defs>
<linearGradient id="paint0_linear_358_184" x1="22.4723" y1="45.0947" x2="22.4723" y2="60.9688" gradientUnits="userSpaceOnUse">
<stop stop-color="#FFCC00"/>
<stop offset="0.628125" stop-color="#F9F871"/>
</linearGradient>
<linearGradient id="paint1_linear_358_184" x1="29.963" y1="0.03125" x2="29.963" y2="54.8752" gradientUnits="userSpaceOnUse">
<stop stop-color="#FFCC00"/>
<stop offset="0.628125" stop-color="#F9F871"/>
</linearGradient>
<linearGradient id="paint2_linear_358_184" x1="20.3315" y1="14.5801" x2="20.3315" y2="22.0335" gradientUnits="userSpaceOnUse">
<stop stop-color="#FFCC00"/>
<stop offset="0.628125" stop-color="#F9F871"/>
</linearGradient>
<linearGradient id="paint3_linear_358_184" x1="20.3319" y1="24.0605" x2="20.3319" y2="31.5155" gradientUnits="userSpaceOnUse">
<stop stop-color="#FFCC00"/>
<stop offset="0.628125" stop-color="#F9F871"/>
</linearGradient>
<linearGradient id="paint4_linear_358_184" x1="20.3319" y1="33.5391" x2="20.3319" y2="40.994" gradientUnits="userSpaceOnUse">
<stop stop-color="#FFCC00"/>
<stop offset="0.628125" stop-color="#F9F871"/>
</linearGradient>
<linearGradient id="paint5_linear_358_184" x1="39.5946" y1="19.7344" x2="39.5946" y2="28.8098" gradientUnits="userSpaceOnUse">
<stop stop-color="#FFCC00"/>
<stop offset="0.628125" stop-color="#F9F871"/>
</linearGradient>
<linearGradient id="paint6_linear_358_184" x1="39.5944" y1="30.2959" x2="39.5944" y2="39.6409" gradientUnits="userSpaceOnUse">
<stop stop-color="#FFCC00"/>
<stop offset="0.628125" stop-color="#F9F871"/>
</linearGradient>
<linearGradient id="paint7_linear_358_184" x1="37.4539" y1="10.1875" x2="37.4539" y2="17.2969" gradientUnits="userSpaceOnUse">
<stop stop-color="#FFCC00"/>
<stop offset="0.628125" stop-color="#F9F871"/>
</linearGradient>
</defs>
</svg>
