<svg width="135" height="132" viewBox="0 0 135 132" fill="none" xmlns="http://www.w3.org/2000/svg">
<g filter="url(#filter0_d_807_80)">
<rect x="14" y="11" width="105" height="102" rx="5" fill="#062D48" shape-rendering="crispEdges"/>
<path fill-rule="evenodd" clip-rule="evenodd" d="M51.5714 54.4286C51.9373 54.7945 52.4335 55 52.951 55H81.8571C82.4883 55 83 54.4883 83 53.8571V53.8571C83 53.226 82.4883 52.7143 81.8571 52.7143H58.2857C55.5243 52.7143 53.2857 50.4757 53.2857 47.7143V24.1429C53.2857 23.5117 52.774 23 52.1429 23V23C51.5117 23 51 23.5117 51 24.1429V53.049C51 53.5665 51.2055 54.0627 51.5714 54.4286V54.4286ZM56.1429 49.8571C55.777 49.4913 55.5714 48.995 55.5714 48.4776V31.8081C55.5714 31.2907 55.777 30.7945 56.1429 30.4286V30.4286C56.5087 30.0627 57.005 29.8571 57.5224 29.8571H60.4776C60.995 29.8571 61.4913 30.0627 61.8571 30.4286V30.4286C62.223 30.7945 62.4286 31.2907 62.4286 31.8081V48.4776C62.4286 48.995 62.223 49.4913 61.8571 49.8571V49.8571C61.4913 50.223 60.995 50.4286 60.4776 50.4286H57.5224C57.005 50.4286 56.5087 50.223 56.1429 49.8571V49.8571ZM59 48.1429C59.6312 48.1429 60.1429 47.6312 60.1429 47V33.2857C60.1429 32.6545 59.6312 32.1429 59 32.1429V32.1429C58.3688 32.1429 57.8571 32.6545 57.8571 33.2857V47C57.8571 47.6312 58.3688 48.1429 59 48.1429V48.1429ZM74.4286 25.8571C74.0627 26.223 73.8571 26.7193 73.8571 27.2367V48.4776C73.8571 48.995 74.0627 49.4913 74.4286 49.8571V49.8571C74.7945 50.223 75.2907 50.4286 75.8081 50.4286H78.7633C79.2807 50.4286 79.777 50.223 80.1429 49.8571V49.8571C80.5087 49.4913 80.7143 48.995 80.7143 48.4776V27.2367C80.7143 26.7193 80.5087 26.223 80.1429 25.8571V25.8571C79.777 25.4913 79.2807 25.2857 78.7633 25.2857H75.8081C75.2907 25.2857 74.7945 25.4913 74.4286 25.8571V25.8571ZM77.2857 27.5714C77.9169 27.5714 78.4286 28.0831 78.4286 28.7143V47C78.4286 47.6312 77.9169 48.1429 77.2857 48.1429V48.1429C76.6545 48.1429 76.1429 47.6312 76.1429 47V28.7143C76.1429 28.0831 76.6545 27.5714 77.2857 27.5714V27.5714ZM65.2857 49.8571C64.9198 49.4913 64.7143 48.995 64.7143 48.4776V36.3796C64.7143 35.8621 64.9198 35.3659 65.2857 35V35C65.6516 34.6341 66.1478 34.4286 66.6653 34.4286H69.6204C70.1379 34.4286 70.6341 34.6341 71 35V35C71.3659 35.3659 71.5714 35.8621 71.5714 36.3796V48.4776C71.5714 48.995 71.3659 49.4913 71 49.8571V49.8571C70.6341 50.223 70.1379 50.4286 69.6205 50.4286H66.6653C66.1478 50.4286 65.6516 50.223 65.2857 49.8571V49.8571ZM68.1429 48.1429C68.774 48.1429 69.2857 47.6312 69.2857 47V37.8571C69.2857 37.226 68.774 36.7143 68.1429 36.7143V36.7143C67.5117 36.7143 67 37.226 67 37.8571V47C67 47.6312 67.5117 48.1429 68.1429 48.1429V48.1429Z" fill="url(#paint0_linear_807_80)"/>
<path d="M30.0795 73H29.0227C28.9602 72.696 28.8509 72.429 28.6946 72.1989C28.5412 71.9688 28.3537 71.7756 28.1321 71.6193C27.9134 71.4602 27.6705 71.3409 27.4034 71.2614C27.1364 71.1818 26.858 71.142 26.5682 71.142C26.0398 71.142 25.5611 71.2756 25.1321 71.5426C24.706 71.8097 24.3665 72.2031 24.1136 72.723C23.8636 73.2429 23.7386 73.8807 23.7386 74.6364C23.7386 75.392 23.8636 76.0298 24.1136 76.5497C24.3665 77.0696 24.706 77.4631 25.1321 77.7301C25.5611 77.9972 26.0398 78.1307 26.5682 78.1307C26.858 78.1307 27.1364 78.0909 27.4034 78.0114C27.6705 77.9318 27.9134 77.8139 28.1321 77.6577C28.3537 77.4986 28.5412 77.304 28.6946 77.0739C28.8509 76.8409 28.9602 76.5739 29.0227 76.2727H30.0795C30 76.7187 29.8551 77.1179 29.6449 77.4702C29.4347 77.8224 29.1733 78.1222 28.8608 78.3693C28.5483 78.6136 28.1974 78.7997 27.8082 78.9276C27.4219 79.0554 27.0085 79.1193 26.5682 79.1193C25.8239 79.1193 25.1619 78.9375 24.5824 78.5739C24.0028 78.2102 23.5469 77.6932 23.2145 77.0227C22.8821 76.3523 22.7159 75.5568 22.7159 74.6364C22.7159 73.7159 22.8821 72.9205 23.2145 72.25C23.5469 71.5795 24.0028 71.0625 24.5824 70.6989C25.1619 70.3352 25.8239 70.1534 26.5682 70.1534C27.0085 70.1534 27.4219 70.2173 27.8082 70.3452C28.1974 70.473 28.5483 70.6605 28.8608 70.9077C29.1733 71.152 29.4347 71.4503 29.6449 71.8026C29.8551 72.152 30 72.5511 30.0795 73ZM33.5771 79.1534C33.1623 79.1534 32.7859 79.0753 32.4478 78.919C32.1097 78.7599 31.8413 78.5312 31.6424 78.233C31.4435 77.9318 31.3441 77.5682 31.3441 77.142C31.3441 76.767 31.418 76.4631 31.5657 76.2301C31.7134 75.9943 31.9109 75.8097 32.158 75.6761C32.4052 75.5426 32.6779 75.4432 32.9762 75.3778C33.2773 75.3097 33.5799 75.2557 33.8839 75.2159C34.2816 75.1648 34.604 75.1264 34.8512 75.1009C35.1012 75.0724 35.283 75.0256 35.3967 74.9602C35.5131 74.8949 35.5714 74.7812 35.5714 74.6193V74.5852C35.5714 74.1648 35.4563 73.8381 35.2262 73.6051C34.9989 73.3722 34.6538 73.2557 34.1907 73.2557C33.7106 73.2557 33.3342 73.3608 33.0614 73.571C32.7887 73.7812 32.5969 74.0057 32.4862 74.2443L31.5316 73.9034C31.7021 73.5057 31.9293 73.196 32.2134 72.9744C32.5004 72.75 32.8129 72.5937 33.1509 72.5057C33.4918 72.4148 33.8271 72.3693 34.1566 72.3693C34.3668 72.3693 34.6083 72.3949 34.881 72.446C35.1566 72.4943 35.4222 72.5952 35.6779 72.7486C35.9364 72.902 36.1509 73.1335 36.3214 73.4432C36.4918 73.7528 36.5771 74.1676 36.5771 74.6875V79H35.5714V78.1136H35.5202C35.4521 78.2557 35.3384 78.4077 35.1793 78.5696C35.0202 78.7315 34.8086 78.8693 34.5444 78.983C34.2802 79.0966 33.9577 79.1534 33.5771 79.1534ZM33.7305 78.25C34.1282 78.25 34.4634 78.1719 34.7362 78.0156C35.0117 77.8594 35.2191 77.6577 35.3583 77.4105C35.5004 77.1634 35.5714 76.9034 35.5714 76.6307V75.7102C35.5288 75.7614 35.435 75.8082 35.2901 75.8509C35.1481 75.8906 34.9833 75.9261 34.7958 75.9574C34.6112 75.9858 34.4308 76.0114 34.2546 76.0341C34.0813 76.054 33.9407 76.071 33.8327 76.0852C33.5714 76.1193 33.3271 76.1747 33.0998 76.2514C32.8754 76.3253 32.6935 76.4375 32.5543 76.5881C32.418 76.7358 32.3498 76.9375 32.3498 77.1932C32.3498 77.5426 32.479 77.8068 32.7376 77.9858C32.9989 78.1619 33.3299 78.25 33.7305 78.25ZM39.4183 70.2727V79H38.4126V70.2727H39.4183ZM43.9194 79.1364C43.3285 79.1364 42.81 78.9957 42.364 78.7145C41.9208 78.4332 41.5742 78.0398 41.3242 77.5341C41.0771 77.0284 40.9535 76.4375 40.9535 75.7614C40.9535 75.0795 41.0771 74.4844 41.3242 73.9759C41.5742 73.4673 41.9208 73.0724 42.364 72.7912C42.81 72.5099 43.3285 72.3693 43.9194 72.3693C44.5103 72.3693 45.0273 72.5099 45.4705 72.7912C45.9165 73.0724 46.2631 73.4673 46.5103 73.9759C46.7603 74.4844 46.8853 75.0795 46.8853 75.7614C46.8853 76.4375 46.7603 77.0284 46.5103 77.5341C46.2631 78.0398 45.9165 78.4332 45.4705 78.7145C45.0273 78.9957 44.5103 79.1364 43.9194 79.1364ZM43.9194 78.233C44.3683 78.233 44.7376 78.1179 45.0273 77.8878C45.3171 77.6577 45.5316 77.3551 45.6708 76.9801C45.81 76.6051 45.8796 76.1989 45.8796 75.7614C45.8796 75.3239 45.81 74.9162 45.6708 74.5384C45.5316 74.1605 45.3171 73.8551 45.0273 73.6222C44.7376 73.3892 44.3683 73.2727 43.9194 73.2727C43.4705 73.2727 43.1012 73.3892 42.8114 73.6222C42.5217 73.8551 42.3072 74.1605 42.168 74.5384C42.0288 74.9162 41.9592 75.3239 41.9592 75.7614C41.9592 76.1989 42.0288 76.6051 42.168 76.9801C42.3072 77.3551 42.5217 77.6577 42.8114 77.8878C43.1012 78.1179 43.4705 78.233 43.9194 78.233ZM48.4205 79V72.4545H49.392V73.4432H49.4602C49.5795 73.1193 49.7955 72.8565 50.108 72.6548C50.4205 72.4531 50.7727 72.3523 51.1648 72.3523C51.2386 72.3523 51.331 72.3537 51.4418 72.3565C51.5526 72.3594 51.6364 72.3636 51.6932 72.3693V73.392C51.6591 73.3835 51.581 73.3707 51.4588 73.3537C51.3395 73.3338 51.2131 73.3239 51.0795 73.3239C50.7614 73.3239 50.4773 73.3906 50.2273 73.5241C49.9801 73.6548 49.7841 73.8366 49.6392 74.0696C49.4972 74.2997 49.4261 74.5625 49.4261 74.858V79H48.4205ZM52.8853 79V72.4545H53.891V79H52.8853ZM53.3967 71.3636C53.2006 71.3636 53.0316 71.2969 52.8896 71.1634C52.7504 71.0298 52.6808 70.8693 52.6808 70.6818C52.6808 70.4943 52.7504 70.3338 52.8896 70.2003C53.0316 70.0668 53.2006 70 53.3967 70C53.5927 70 53.7603 70.0668 53.8995 70.2003C54.0415 70.3338 54.1126 70.4943 54.1126 70.6818C54.1126 70.8693 54.0415 71.0298 53.8995 71.1634C53.7603 71.2969 53.5927 71.3636 53.3967 71.3636ZM58.4773 79.1364C57.8466 79.1364 57.3026 78.9972 56.8452 78.7188C56.3906 78.4375 56.0398 78.0455 55.7926 77.5426C55.5483 77.0369 55.4261 76.4489 55.4261 75.7784C55.4261 75.108 55.5483 74.517 55.7926 74.0057C56.0398 73.4915 56.3835 73.0909 56.8239 72.804C57.267 72.5142 57.7841 72.3693 58.375 72.3693C58.7159 72.3693 59.0526 72.4261 59.3849 72.5398C59.7173 72.6534 60.0199 72.8381 60.2926 73.0938C60.5653 73.3466 60.7827 73.6818 60.9446 74.0994C61.1065 74.517 61.1875 75.0312 61.1875 75.642V76.0682H56.142V75.1989H60.1648C60.1648 74.8295 60.0909 74.5 59.9432 74.2102C59.7983 73.9205 59.5909 73.6918 59.321 73.5241C59.054 73.3565 58.7386 73.2727 58.375 73.2727C57.9744 73.2727 57.6278 73.3722 57.3352 73.571C57.0455 73.767 56.8224 74.0227 56.6662 74.3381C56.5099 74.6534 56.4318 74.9915 56.4318 75.3523V75.9318C56.4318 76.4261 56.517 76.8452 56.6875 77.1889C56.8608 77.5298 57.1009 77.7898 57.4077 77.9688C57.7145 78.1449 58.071 78.233 58.4773 78.233C58.7415 78.233 58.9801 78.196 59.1932 78.1222C59.4091 78.0455 59.5952 77.9318 59.7514 77.7812C59.9077 77.6278 60.0284 77.4375 60.1136 77.2102L61.0852 77.483C60.983 77.8125 60.8111 78.1023 60.5696 78.3523C60.3281 78.5994 60.0298 78.7926 59.6747 78.9318C59.3196 79.0682 58.9205 79.1364 58.4773 79.1364ZM67.3537 73.9205L66.4503 74.1761C66.3935 74.0256 66.3097 73.8793 66.1989 73.7372C66.0909 73.5923 65.9432 73.473 65.7557 73.3793C65.5682 73.2855 65.3281 73.2386 65.0355 73.2386C64.6349 73.2386 64.3011 73.331 64.0341 73.5156C63.7699 73.6974 63.6378 73.929 63.6378 74.2102C63.6378 74.4602 63.7287 74.6577 63.9105 74.8026C64.0923 74.9474 64.3764 75.0682 64.7628 75.1648L65.7344 75.4034C66.3196 75.5455 66.7557 75.7628 67.0426 76.0554C67.3295 76.3452 67.473 76.7187 67.473 77.1761C67.473 77.5511 67.3651 77.8864 67.1491 78.1818C66.9361 78.4773 66.6378 78.7102 66.2543 78.8807C65.8707 79.0511 65.4247 79.1364 64.9162 79.1364C64.2486 79.1364 63.696 78.9915 63.2585 78.7017C62.821 78.4119 62.544 77.9886 62.4276 77.4318L63.3821 77.1932C63.473 77.5455 63.6449 77.8097 63.8977 77.9858C64.1534 78.1619 64.4872 78.25 64.8991 78.25C65.3679 78.25 65.7401 78.1506 66.0156 77.9517C66.294 77.75 66.4332 77.5085 66.4332 77.2273C66.4332 77 66.3537 76.8097 66.1946 76.6562C66.0355 76.5 65.7912 76.3835 65.4616 76.3068L64.3707 76.0511C63.7713 75.9091 63.331 75.6889 63.0497 75.3906C62.7713 75.0895 62.6321 74.7131 62.6321 74.2614C62.6321 73.892 62.7358 73.5653 62.9432 73.2812C63.1534 72.9972 63.4389 72.7741 63.7997 72.6122C64.1634 72.4503 64.5753 72.3693 65.0355 72.3693C65.6832 72.3693 66.1918 72.5114 66.5611 72.7955C66.9332 73.0795 67.1974 73.4545 67.3537 73.9205ZM72.4982 79V70.2727H73.5039V73.4943H73.5891C73.663 73.3807 73.7653 73.2358 73.896 73.0597C74.0295 72.8807 74.2198 72.7216 74.467 72.5824C74.717 72.4403 75.055 72.3693 75.4812 72.3693C76.0323 72.3693 76.5181 72.5071 76.9386 72.7827C77.359 73.0582 77.6871 73.4489 77.9229 73.9545C78.1587 74.4602 78.2766 75.0568 78.2766 75.7443C78.2766 76.4375 78.1587 77.0384 77.9229 77.5469C77.6871 78.0526 77.3604 78.4446 76.9428 78.723C76.5252 78.9986 76.0437 79.1364 75.4982 79.1364C75.0778 79.1364 74.7411 79.0668 74.4883 78.9276C74.2354 78.7855 74.0408 78.625 73.9045 78.446C73.7681 78.2642 73.663 78.1136 73.5891 77.9943H73.4698V79H72.4982ZM73.4869 75.7273C73.4869 76.2216 73.5593 76.6577 73.7042 77.0355C73.8491 77.4105 74.0607 77.7045 74.3391 77.9176C74.6175 78.1278 74.9585 78.233 75.3619 78.233C75.7823 78.233 76.1332 78.1222 76.4144 77.9006C76.6985 77.6761 76.9116 77.375 77.0536 76.9972C77.1985 76.6165 77.271 76.1932 77.271 75.7273C77.271 75.267 77.1999 74.8523 77.0579 74.483C76.9187 74.1108 76.707 73.8168 76.4229 73.6009C76.1417 73.3821 75.788 73.2727 75.3619 73.2727C74.9528 73.2727 74.609 73.3764 74.3306 73.5838C74.0522 73.7884 73.842 74.0753 73.6999 74.4446C73.5579 74.8111 73.4869 75.2386 73.4869 75.7273ZM83.94 76.3239V72.4545H84.9457V79H83.94V77.892H83.8718C83.7184 78.2244 83.4798 78.5071 83.1559 78.7401C82.832 78.9702 82.4229 79.0852 81.9286 79.0852C81.5195 79.0852 81.1559 78.9957 80.8377 78.8168C80.5195 78.6349 80.2695 78.3622 80.0877 77.9986C79.9059 77.6321 79.815 77.1705 79.815 76.6136V72.4545H80.8207V76.5455C80.8207 77.0227 80.9542 77.4034 81.2212 77.6875C81.4911 77.9716 81.8349 78.1136 82.2525 78.1136C82.5025 78.1136 82.7567 78.0497 83.0153 77.9219C83.2766 77.794 83.4954 77.598 83.6715 77.3338C83.8505 77.0696 83.94 76.733 83.94 76.3239ZM86.7876 79V72.4545H87.7592V73.4432H87.8274C87.9467 73.1193 88.1626 72.8565 88.4751 72.6548C88.7876 72.4531 89.1399 72.3523 89.532 72.3523C89.6058 72.3523 89.6982 72.3537 89.8089 72.3565C89.9197 72.3594 90.0036 72.3636 90.0604 72.3693V73.392C90.0263 73.3835 89.9482 73.3707 89.826 73.3537C89.7067 73.3338 89.5803 73.3239 89.4467 73.3239C89.1286 73.3239 88.8445 73.3906 88.5945 73.5241C88.3473 73.6548 88.1513 73.8366 88.0064 74.0696C87.8643 74.2997 87.7933 74.5625 87.7933 74.858V79H86.7876ZM92.2582 75.0625V79H91.2525V72.4545H92.2241V73.4773H92.3093C92.4627 73.1449 92.6957 72.8778 93.0082 72.6761C93.3207 72.4716 93.7241 72.3693 94.2184 72.3693C94.6616 72.3693 95.0494 72.4602 95.3817 72.642C95.7141 72.821 95.9727 73.0938 96.1573 73.4602C96.342 73.8239 96.4343 74.2841 96.4343 74.8409V79H95.4286V74.9091C95.4286 74.3949 95.2951 73.9943 95.0281 73.7074C94.761 73.4176 94.3945 73.2727 93.9286 73.2727C93.6076 73.2727 93.3207 73.3423 93.0678 73.4815C92.8178 73.6207 92.6204 73.8239 92.4755 74.0909C92.3306 74.358 92.2582 74.6818 92.2582 75.0625ZM101.016 79.1364C100.386 79.1364 99.8416 78.9972 99.3842 78.7188C98.9297 78.4375 98.5788 78.0455 98.3317 77.5426C98.0874 77.0369 97.9652 76.4489 97.9652 75.7784C97.9652 75.108 98.0874 74.517 98.3317 74.0057C98.5788 73.4915 98.9226 73.0909 99.3629 72.804C99.8061 72.5142 100.323 72.3693 100.914 72.3693C101.255 72.3693 101.592 72.4261 101.924 72.5398C102.256 72.6534 102.559 72.8381 102.832 73.0938C103.104 73.3466 103.322 73.6818 103.484 74.0994C103.646 74.517 103.727 75.0312 103.727 75.642V76.0682H98.6811V75.1989H102.704C102.704 74.8295 102.63 74.5 102.482 74.2102C102.337 73.9205 102.13 73.6918 101.86 73.5241C101.593 73.3565 101.278 73.2727 100.914 73.2727C100.513 73.2727 100.167 73.3722 99.8743 73.571C99.5845 73.767 99.3615 74.0227 99.2053 74.3381C99.049 74.6534 98.9709 74.9915 98.9709 75.3523V75.9318C98.9709 76.4261 99.0561 76.8452 99.2266 77.1889C99.3999 77.5298 99.6399 77.7898 99.9467 77.9688C100.254 78.1449 100.61 78.233 101.016 78.233C101.281 78.233 101.519 78.196 101.732 78.1222C101.948 78.0455 102.134 77.9318 102.29 77.7812C102.447 77.6278 102.567 77.4375 102.653 77.2102L103.624 77.483C103.522 77.8125 103.35 78.1023 103.109 78.3523C102.867 78.5994 102.569 78.7926 102.214 78.9318C101.859 79.0682 101.46 79.1364 101.016 79.1364ZM107.728 79.1364C107.183 79.1364 106.701 78.9986 106.283 78.723C105.866 78.4446 105.539 78.0526 105.303 77.5469C105.067 77.0384 104.95 76.4375 104.95 75.7443C104.95 75.0568 105.067 74.4602 105.303 73.9545C105.539 73.4489 105.867 73.0582 106.288 72.7827C106.708 72.5071 107.194 72.3693 107.745 72.3693C108.171 72.3693 108.508 72.4403 108.755 72.5824C109.005 72.7216 109.195 72.8807 109.326 73.0597C109.46 73.2358 109.563 73.3807 109.637 73.4943H109.722V70.2727H110.728V79H109.756V77.9943H109.637C109.563 78.1136 109.458 78.2642 109.322 78.446C109.185 78.625 108.991 78.7855 108.738 78.9276C108.485 79.0668 108.148 79.1364 107.728 79.1364ZM107.864 78.233C108.268 78.233 108.609 78.1278 108.887 77.9176C109.165 77.7045 109.377 77.4105 109.522 77.0355C109.667 76.6577 109.739 76.2216 109.739 75.7273C109.739 75.2386 109.668 74.8111 109.526 74.4446C109.384 74.0753 109.174 73.7884 108.896 73.5838C108.617 73.3764 108.273 73.2727 107.864 73.2727C107.438 73.2727 107.083 73.3821 106.799 73.6009C106.518 73.8168 106.306 74.1108 106.164 74.483C106.025 74.8523 105.955 75.267 105.955 75.7273C105.955 76.1932 106.026 76.6165 106.168 76.9972C106.313 77.375 106.526 77.6761 106.808 77.9006C107.092 78.1222 107.444 78.233 107.864 78.233Z" fill="#ADBCC7"/>
<path d="M36.8842 100V98.3381L40.7674 94.7425C41.0977 94.4229 41.3746 94.1353 41.5984 93.8796C41.8256 93.6239 41.9979 93.3736 42.1151 93.1286C42.2322 92.88 42.2908 92.6119 42.2908 92.3242C42.2908 92.0046 42.218 91.7294 42.0724 91.4986C41.9268 91.2642 41.728 91.0849 41.4759 90.9606C41.2237 90.8327 40.9379 90.7688 40.6183 90.7688C40.2844 90.7688 39.9933 90.8363 39.7447 90.9712C39.4961 91.1062 39.3043 91.2997 39.1694 91.5518C39.0344 91.804 38.967 92.104 38.967 92.4521H36.7777C36.7777 91.7383 36.9393 91.1186 37.2624 90.593C37.5856 90.0675 38.0384 89.6609 38.6207 89.3732C39.2031 89.0856 39.8743 88.9418 40.6342 88.9418C41.4155 88.9418 42.0955 89.0803 42.6744 89.3572C43.2567 89.6307 43.7095 90.0107 44.0327 90.4972C44.3558 90.9837 44.5174 91.5412 44.5174 92.1697C44.5174 92.5817 44.4357 92.9883 44.2724 93.3896C44.1126 93.7908 43.8267 94.2365 43.4148 94.7266C43.0028 95.2131 42.4222 95.7972 41.6729 96.479L40.0803 98.0398V98.1143H44.6612V100H36.8842ZM51.0786 89.0909V100H48.7721V91.2802H48.7082L46.21 92.8462V90.8008L48.9106 89.0909H51.0786ZM57.9487 100.24C57.0325 100.236 56.2441 100.011 55.5836 99.5632C54.9267 99.1158 54.4206 98.4677 54.0655 97.619C53.714 96.7702 53.54 95.7493 53.5435 94.5561C53.5435 93.3665 53.7193 92.3526 54.0708 91.5146C54.426 90.6765 54.932 90.0391 55.589 89.6023C56.2495 89.1619 57.036 88.9418 57.9487 88.9418C58.8613 88.9418 59.6461 89.1619 60.3031 89.6023C60.9636 90.0426 61.4714 90.6818 61.8265 91.5199C62.1816 92.3544 62.3574 93.3665 62.3539 94.5561C62.3539 95.7528 62.1763 96.7756 61.8212 97.6243C61.4696 98.473 60.9654 99.1211 60.3084 99.5685C59.6515 100.016 58.8649 100.24 57.9487 100.24ZM57.9487 98.3274C58.5737 98.3274 59.0726 98.0131 59.4455 97.3846C59.8184 96.756 60.003 95.8132 59.9995 94.5561C59.9995 93.7287 59.9142 93.0398 59.7438 92.4893C59.5769 91.9389 59.339 91.5252 59.03 91.2482C58.7246 90.9712 58.3642 90.8327 57.9487 90.8327C57.3272 90.8327 56.8301 91.1435 56.4572 91.7649C56.0843 92.3864 55.8961 93.3168 55.8926 94.5561C55.8926 95.3942 55.976 96.0938 56.1429 96.6548C56.3134 97.2124 56.5531 97.6314 56.862 97.9119C57.171 98.1889 57.5332 98.3274 57.9487 98.3274ZM69.5476 97.6456L69.5529 94.9237H69.8832L72.5039 91.8182H75.1087L71.5877 95.9304H71.0497L69.5476 97.6456ZM67.4915 100V89.0909H69.7607V100H67.4915ZM72.6051 100L70.1974 96.4364L71.7102 94.8331L75.2631 100H72.6051ZM79.5818 100.16C78.7437 100.16 78.0228 99.9822 77.4191 99.6271C76.819 99.2685 76.3573 98.7713 76.0342 98.1357C75.7146 97.5 75.5548 96.7685 75.5548 95.9411C75.5548 95.103 75.7164 94.3679 76.0395 93.7358C76.3662 93.1001 76.8296 92.6048 77.4298 92.2496C78.0299 91.891 78.7437 91.7116 79.5711 91.7116C80.2849 91.7116 80.9099 91.8413 81.4461 92.1005C81.9823 92.3597 82.4067 92.7237 82.7192 93.1925C83.0317 93.6612 83.2039 94.2116 83.2359 94.8438H81.0945C81.0342 94.4354 80.8744 94.1069 80.6151 93.8583C80.3595 93.6062 80.0239 93.4801 79.6084 93.4801C79.2568 93.4801 78.9497 93.576 78.6869 93.7678C78.4276 93.956 78.2252 94.2312 78.0796 94.5934C77.934 94.9556 77.8612 95.3942 77.8612 95.9091C77.8612 96.4311 77.9323 96.875 78.0743 97.2408C78.2199 97.6065 78.4241 97.8853 78.6869 98.0771C78.9497 98.2688 79.2568 98.3647 79.6084 98.3647C79.8676 98.3647 80.1002 98.3114 80.3062 98.2049C80.5157 98.0984 80.6879 97.9439 80.8229 97.7415C80.9614 97.5355 81.0519 97.2887 81.0945 97.0011H83.2359C83.2004 97.6261 83.0299 98.1765 82.7245 98.6523C82.4227 99.1246 82.0054 99.494 81.4727 99.7603C80.9401 100.027 80.3097 100.16 79.5818 100.16ZM87.0218 100.154C86.4998 100.154 86.0346 100.064 85.6262 99.8828C85.2179 99.6982 84.8947 99.4265 84.6568 99.0678C84.4224 98.7056 84.3052 98.2546 84.3052 97.7148C84.3052 97.2603 84.3887 96.8786 84.5556 96.5696C84.7225 96.2607 84.9498 96.0121 85.2374 95.8239C85.525 95.6357 85.8517 95.4936 86.2175 95.3977C86.5868 95.3018 86.9739 95.2344 87.3787 95.1953C87.8546 95.1456 88.2381 95.0994 88.5293 95.0568C88.8205 95.0107 89.0318 94.9432 89.1632 94.8544C89.2946 94.7656 89.3603 94.6342 89.3603 94.4602V94.4283C89.3603 94.0909 89.2537 93.8299 89.0407 93.6452C88.8311 93.4606 88.5328 93.3683 88.1458 93.3683C87.7374 93.3683 87.4125 93.4588 87.171 93.6399C86.9295 93.8175 86.7697 94.0412 86.6916 94.3111L84.5929 94.1406C84.6994 93.6435 84.9089 93.2138 85.2214 92.8516C85.5339 92.4858 85.937 92.2053 86.4306 92.0099C86.9277 91.8111 87.503 91.7116 88.1564 91.7116C88.611 91.7116 89.046 91.7649 89.4615 91.8714C89.8805 91.978 90.2516 92.1431 90.5748 92.3668C90.9015 92.5906 91.1589 92.8782 91.3471 93.2298C91.5353 93.5778 91.6294 93.995 91.6294 94.4815V100H89.4775V98.8654H89.4135C89.2821 99.1211 89.1064 99.3466 88.8862 99.5419C88.666 99.7337 88.4015 99.8846 88.0925 99.9947C87.7836 100.101 87.4267 100.154 87.0218 100.154ZM87.6717 98.5884C88.0055 98.5884 88.3002 98.5227 88.5559 98.3913C88.8116 98.2564 89.0123 98.0753 89.1578 97.848C89.3034 97.6207 89.3762 97.3633 89.3762 97.0756V96.2074C89.3052 96.2536 89.2076 96.2962 89.0833 96.3352C88.9625 96.3707 88.8258 96.4045 88.6731 96.4364C88.5204 96.4648 88.3677 96.4915 88.215 96.5163C88.0623 96.5376 87.9238 96.5572 87.7995 96.5749C87.5332 96.614 87.3006 96.6761 87.1017 96.7614C86.9029 96.8466 86.7484 96.962 86.6383 97.1076C86.5282 97.2496 86.4732 97.4272 86.4732 97.6403C86.4732 97.9492 86.585 98.1854 86.8088 98.3487C87.036 98.5085 87.3237 98.5884 87.6717 98.5884ZM95.6591 89.0909V100H93.3899V89.0909H95.6591Z" fill="white"/>
</g>
<defs>
<filter id="filter0_d_807_80" x="0" y="0" width="135" height="132" filterUnits="userSpaceOnUse" color-interpolation-filters="sRGB">
<feFlood flood-opacity="0" result="BackgroundImageFix"/>
<feColorMatrix in="SourceAlpha" type="matrix" values="0 0 0 0 0 0 0 0 0 0 0 0 0 0 0 0 0 0 127 0" result="hardAlpha"/>
<feOffset dx="1" dy="4"/>
<feGaussianBlur stdDeviation="7.5"/>
<feComposite in2="hardAlpha" operator="out"/>
<feColorMatrix type="matrix" values="0 0 0 0 0 0 0 0 0 0 0 0 0 0 0 0 0 0 0.25 0"/>
<feBlend mode="normal" in2="BackgroundImageFix" result="effect1_dropShadow_807_80"/>
<feBlend mode="normal" in="SourceGraphic" in2="effect1_dropShadow_807_80" result="shape"/>
</filter>
<linearGradient id="paint0_linear_807_80" x1="67" y1="23" x2="67" y2="55" gradientUnits="userSpaceOnUse">
<stop stop-color="#F9F871"/>
<stop offset="0.523958" stop-color="#FFCC00"/>
</linearGradient>
</defs>
</svg>
