<svg width="19" height="21" viewBox="0 0 19 21" fill="none" xmlns="http://www.w3.org/2000/svg">
<path d="M9.49946 6.48926C8.60864 6.48926 7.75431 6.86226 7.1244 7.52621C6.4945 8.19016 6.14063 9.09067 6.14062 10.0296C6.14063 10.9686 6.4945 11.8691 7.1244 12.5331C7.75431 13.197 8.60864 13.57 9.49946 13.57C10.3903 13.57 11.2446 13.197 11.8745 12.5331C12.5044 11.8691 12.8583 10.9686 12.8583 10.0296C12.8583 9.09067 12.5044 8.19016 11.8745 7.52621C11.2446 6.86226 10.3903 6.48926 9.49946 6.48926Z" fill="#FFCC00" fill-opacity="0.57"/>
<path fill-rule="evenodd" clip-rule="evenodd" d="M4.09489 0.314794C7.68731 -0.104931 11.3127 -0.104931 14.9052 0.314794C16.8678 0.545736 18.45 2.17431 18.6805 4.25061C19.1065 8.09019 19.1065 11.969 18.6805 15.8086C18.45 17.8849 16.8678 19.5135 14.9062 19.7455C11.3134 20.1653 7.68765 20.1653 4.09489 19.7455C2.13229 19.5135 0.550026 17.8849 0.319558 15.8097C-0.106519 11.9697 -0.106519 8.09055 0.319558 4.25061C0.550026 2.17431 2.13229 0.545736 4.09489 0.314794ZM14.6675 3.49351C14.3934 3.49351 14.1305 3.60828 13.9367 3.81257C13.7429 4.01687 13.634 4.29395 13.634 4.58286C13.634 4.87177 13.7429 5.14885 13.9367 5.35315C14.1305 5.55744 14.3934 5.67221 14.6675 5.67221C14.9416 5.67221 15.2044 5.55744 15.3982 5.35315C15.5921 5.14885 15.7009 4.87177 15.7009 4.58286C15.7009 4.29395 15.5921 4.01687 15.3982 3.81257C15.2044 3.60828 14.9416 3.49351 14.6675 3.49351ZM4.59096 10.0296C4.59096 8.65726 5.10816 7.34113 6.02879 6.37075C6.94942 5.40036 8.19806 4.8552 9.50002 4.8552C10.802 4.8552 12.0506 5.40036 12.9713 6.37075C13.8919 7.34113 14.4091 8.65726 14.4091 10.0296C14.4091 11.4019 13.8919 12.7181 12.9713 13.6885C12.0506 14.6588 10.802 15.204 9.50002 15.204C8.19806 15.204 6.94942 14.6588 6.02879 13.6885C5.10816 12.7181 4.59096 11.4019 4.59096 10.0296Z" fill="#FFCC00" fill-opacity="0.57"/>
</svg>
