<svg width="30" height="31" viewBox="0 0 30 31" fill="none" xmlns="http://www.w3.org/2000/svg">
<path d="M15.2534 10.4316C13.9042 10.4316 12.6102 10.9966 11.6561 12.0023C10.702 13.0079 10.166 14.3718 10.166 15.794C10.166 17.2162 10.702 18.5802 11.6561 19.5858C12.6102 20.5915 13.9042 21.1564 15.2534 21.1564C16.6027 21.1564 17.8967 20.5915 18.8508 19.5858C19.8049 18.5802 20.3409 17.2162 20.3409 15.794C20.3409 14.3718 19.8049 13.0079 18.8508 12.0023C17.8967 10.9966 16.6027 10.4316 15.2534 10.4316Z" fill="white"/>
<path fill-rule="evenodd" clip-rule="evenodd" d="M7.06727 1.07934C12.5085 0.443606 17.9997 0.443606 23.4409 1.07934C26.4136 1.42913 28.8101 3.89584 29.1592 7.04068C29.8045 12.8563 29.8045 18.7313 29.1592 24.5469C28.8101 27.6917 26.4136 30.1584 23.4425 30.5099C18.0008 31.1458 12.509 31.1458 7.06727 30.5099C4.09465 30.1584 1.69808 27.6917 1.34901 24.5485C0.703652 18.7324 0.703652 12.8568 1.34901 7.04068C1.69808 3.89584 4.09465 1.42913 7.06727 1.07934ZM23.0809 5.89395C22.6657 5.89395 22.2676 6.06779 21.974 6.37722C21.6805 6.68665 21.5155 7.10632 21.5155 7.54392C21.5155 7.98152 21.6805 8.4012 21.974 8.71063C22.2676 9.02006 22.6657 9.19389 23.0809 9.19389C23.4961 9.19389 23.8942 9.02006 24.1878 8.71063C24.4813 8.4012 24.6463 7.98152 24.6463 7.54392C24.6463 7.10632 24.4813 6.68665 24.1878 6.37722C23.8942 6.06779 23.4961 5.89395 23.0809 5.89395ZM7.81864 15.7938C7.81864 13.7152 8.60202 11.7217 9.99644 10.2519C11.3909 8.78213 13.2821 7.95641 15.2541 7.95641C17.2261 7.95641 19.1173 8.78213 20.5118 10.2519C21.9062 11.7217 22.6896 13.7152 22.6896 15.7938C22.6896 17.8724 21.9062 19.8658 20.5118 21.3356C19.1173 22.8054 17.2261 23.6311 15.2541 23.6311C13.2821 23.6311 11.3909 22.8054 9.99644 21.3356C8.60202 19.8658 7.81864 17.8724 7.81864 15.7938Z" fill="white"/>
</svg>
