<svg width="55" height="56" viewBox="0 0 55 56" fill="none" xmlns="http://www.w3.org/2000/svg">
<path d="M45.0709 25.9116H50.1264C48.9702 14.3015 39.1805 5.45912 27.5005 5.45912C14.932 5.45912 4.75999 15.631 4.75999 28.1997C4.75999 39.8964 13.6174 49.6794 25.2208 50.8276L25.2176 45.951H29.7736L29.7805 55.5159H27.5001C12.4288 55.5159 0.18457 43.2686 0.18457 28.1994C0.18457 13.1196 12.4215 0.883789 27.5001 0.883789C42.5736 0.883789 54.8157 13.1259 54.8157 28.1994V30.4872H45.0714L45.0709 25.9116ZM29.5845 18.0274C29.5845 15.6671 25.9968 15.6671 25.9968 18.0274V28.1455L19.2159 35.0219C17.5665 36.6986 20.1165 39.2068 21.7672 37.5301L28.9706 30.2232C29.3466 29.8949 29.5845 29.4122 29.5845 28.874L29.5845 18.0274ZM41.4324 14.2667C42.6394 15.4724 42.6394 17.4294 41.4324 18.6365C40.2266 19.8435 38.2696 19.8435 37.0626 18.6365C35.8556 17.4294 35.8556 15.4724 37.0626 14.2667C38.2696 13.0597 40.2266 13.0597 41.4324 14.2667ZM13.5672 42.1318C12.3602 40.9261 12.3602 38.969 13.5672 37.762C14.773 36.555 16.73 36.555 17.937 37.762C19.144 38.969 19.144 40.9261 17.937 42.1318C16.73 43.3388 14.773 43.3388 13.5672 42.1318ZM7.79522 28.1992C7.79522 26.4928 9.17941 25.1085 10.8859 25.1085C12.5925 25.1085 13.9762 26.4927 13.9762 28.1992C13.9762 29.9058 12.5924 31.29 10.8859 31.29C9.17951 31.29 7.79522 29.9058 7.79522 28.1992ZM13.5672 14.2667C14.773 13.0597 16.73 13.0597 17.937 14.2667C19.144 15.4724 19.144 17.4294 17.937 18.6365C16.73 19.8435 14.773 19.8435 13.5672 18.6365C12.3602 17.4294 12.3602 15.4724 13.5672 14.2667ZM27.4998 8.49467C29.2062 8.49467 30.5905 9.87885 30.5905 11.5854C30.5905 13.2919 29.2063 14.6757 27.4998 14.6757C25.7933 14.6757 24.4091 13.2918 24.4091 11.5854C24.4091 9.87895 25.7933 8.49467 27.4998 8.49467Z" fill="url(#paint0_linear_590_90)"/>
<defs>
<linearGradient id="paint0_linear_590_90" x1="-0.000488868" y1="0.999634" x2="54.9995" y2="47.4996" gradientUnits="userSpaceOnUse">
<stop offset="0.154167" stop-color="#FFCC00"/>
<stop offset="0.596875" stop-color="#F9F871"/>
</linearGradient>
</defs>
</svg>
