<svg width="24" height="24" viewBox="0 0 24 24" fill="none" xmlns="http://www.w3.org/2000/svg">
<path d="M19 11.9502C19 10.0002 18.3207 8.3462 16.962 6.9882C15.6033 5.6302 13.9493 4.95086 12 4.9502V2.9502C13.25 2.9502 14.421 3.18786 15.513 3.6632C16.605 4.13853 17.555 4.78019 18.363 5.5882C19.171 6.3962 19.8127 7.3462 20.288 8.4382C20.7633 9.5302 21.0007 10.7009 21 11.9502H19ZM15 11.9502C15 11.1169 14.7083 10.4085 14.125 9.8252C13.5417 9.24186 12.8333 8.9502 12 8.9502V6.9502C13.3833 6.9502 14.5627 7.43786 15.538 8.4132C16.5133 9.38853 17.0007 10.5675 17 11.9502H15ZM19.95 21.0002C17.8 21.0002 15.704 20.5209 13.662 19.5622C11.62 18.6035 9.81167 17.3369 8.237 15.7622C6.66233 14.1875 5.39567 12.3792 4.437 10.3372C3.47833 8.2952 2.99933 6.19953 3 4.0502C3 3.7502 3.1 3.5002 3.3 3.3002C3.5 3.1002 3.75 3.0002 4.05 3.0002H8.1C8.33333 3.0002 8.54167 3.0752 8.725 3.2252C8.90833 3.3752 9.01667 3.56686 9.05 3.8002L9.7 7.3002C9.73333 7.53353 9.729 7.7462 9.687 7.9382C9.645 8.1302 9.54933 8.30086 9.4 8.4502L7 10.9002C7.7 12.1002 8.575 13.2252 9.625 14.2752C10.675 15.3252 11.8333 16.2335 13.1 17.0002L15.45 14.6502C15.6 14.5002 15.796 14.3879 16.038 14.3132C16.28 14.2385 16.5173 14.2175 16.75 14.2502L20.2 14.9502C20.4333 15.0002 20.625 15.1129 20.775 15.2882C20.925 15.4635 21 15.6675 21 15.9002V19.9502C21 20.2502 20.9 20.5002 20.7 20.7002C20.5 20.9002 20.25 21.0002 19.95 21.0002Z" fill="#025193"/>
</svg>
