<svg width="38" height="40" viewBox="0 0 38 40" fill="none" xmlns="http://www.w3.org/2000/svg">
<path d="M37.5578 16.2349C33.8659 16.2431 30.2645 15.1812 27.2624 13.1992V27.0219C27.2614 29.582 26.413 32.0808 24.8306 34.1841C23.2482 36.2875 21.0073 37.8952 18.4075 38.7922C15.8076 39.6893 12.9728 39.8329 10.2821 39.2039C7.59143 38.5749 5.17305 37.2033 3.35038 35.2724C1.52771 33.3415 0.387631 30.9435 0.0825774 28.3989C-0.222476 25.8543 0.322041 23.2845 1.64332 21.033C2.9646 18.7815 4.99966 16.9557 7.47639 15.7998C9.95311 14.6438 12.7534 14.2128 15.5029 14.5643V21.5166C14.2448 21.1516 12.8937 21.1626 11.6427 21.5481C10.3917 21.9335 9.30476 22.6736 8.53706 23.6628C7.76935 24.652 7.36017 25.8396 7.36794 27.056C7.3757 28.2724 7.80003 29.4555 8.58031 30.4363C9.3606 31.417 10.4569 32.1453 11.7128 32.5171C12.9686 32.8889 14.3197 32.8852 15.5731 32.5066C16.8266 32.1279 17.9182 31.3937 18.6922 30.4087C19.4662 29.4237 19.8829 28.2383 19.8829 27.0219V0H27.2624C27.2573 0.574762 27.3095 1.14874 27.4184 1.71468C27.6748 2.97805 28.208 4.1799 28.9854 5.2467C29.7627 6.3135 30.7678 7.22284 31.9392 7.91908C33.6058 8.93543 35.5598 9.47715 37.5578 9.47676V16.2349Z" fill="white"/>
</svg>
