<svg width="19" height="21" viewBox="0 0 19 21" fill="none" xmlns="http://www.w3.org/2000/svg">
<path d="M19 8.23196C17.1323 8.23607 15.3104 7.69962 13.7917 6.69837V13.6814C13.7912 14.9747 13.362 16.2371 12.5615 17.2997C11.761 18.3623 10.6273 19.1745 9.3121 19.6276C7.99689 20.0808 6.5628 20.1534 5.20161 19.8356C3.84041 19.5178 2.61698 18.8249 1.69492 17.8495C0.772852 16.874 0.196098 15.6625 0.0417749 14.377C-0.112548 13.0915 0.162917 11.7933 0.831335 10.6559C1.49975 9.51846 2.52927 8.5961 3.78221 8.01213C5.03515 7.42816 6.45181 7.21041 7.84275 7.388V10.9002C7.20625 10.7158 6.52277 10.7214 5.88991 10.9161C5.25704 11.1108 4.70716 11.4847 4.31879 11.9844C3.93042 12.4841 3.72342 13.0841 3.72735 13.6986C3.73128 14.3132 3.94594 14.9108 4.34067 15.4063C4.73541 15.9018 5.29003 16.2697 5.92534 16.4575C6.56065 16.6453 7.24416 16.6435 7.87825 16.4522C8.51235 16.2609 9.0646 15.89 9.45615 15.3924C9.8477 14.8948 10.0585 14.2959 10.0585 13.6814V0.0302734H13.7917C13.7891 0.320636 13.8155 0.610603 13.8706 0.896508C14.0004 1.53475 14.2701 2.1419 14.6633 2.68084C15.0566 3.21978 15.565 3.67916 16.1577 4.0309C17.0008 4.54434 17.9892 4.81801 19 4.81781V8.23196Z" fill="#FFCC00" fill-opacity="0.57"/>
</svg>
