<svg width="279" height="17" viewBox="0 0 279 17" fill="none" xmlns="http://www.w3.org/2000/svg">
<path fill-rule="evenodd" clip-rule="evenodd" d="M269.2 5.57388C266.121 5.17968 262.816 5.17968 259.738 5.57388C253.905 5.1805 247.951 5.1805 242.118 5.57388C240.16 5.57388 238.529 5.57388 236.571 5.57388C234.613 5.57388 236.571 4.651 236.571 4.12364C236.571 3.59628 232.982 4.12364 231.35 4.12364C229.719 4.12364 231.35 3.20075 231.35 2.6734H238.855C237.273 2.23114 235.395 1.99423 233.471 1.99423C231.547 1.99423 229.669 2.23114 228.087 2.6734H215.688C215.688 2.6734 219.277 2.6734 220.256 1.88236H214.709H216.341H219.93C221.561 1.88236 223.845 1.88236 224.498 1.22316C225.151 0.563962 221.561 1.22316 219.93 1.22316C218.299 1.22316 212.099 1.22316 207.857 1.22316C205.397 1.24921 203.012 1.57047 201.005 2.14604C194.112 1.38489 186.76 1.71495 180.449 3.06891C180.449 3.06891 177.512 3.06891 176.533 3.06891H159.24H157.608C154.019 2.14603 149.451 1.75052 146.841 0.300286C149.209 0.495625 151.651 0.495625 154.019 0.300286C151.669 0.0425723 149.191 0.0425723 146.841 0.300286C144.23 0.300286 141.294 0.300286 138.683 0.300286H134.768H127.916C127.073 0.103573 126.116 0 125.142 0C124.169 0 123.212 0.103573 122.369 0.300286C113.848 1.23237 105.088 1.76326 96.2655 1.88236C92.879 1.4202 89.2106 1.4202 85.8241 1.88236C80.8686 1.48793 75.7702 1.48793 70.8147 1.88236C58.9124 1.82866 47.0503 2.44996 35.5752 3.72811C29.7125 3.52689 23.8182 3.52689 17.9555 3.72811C9.47189 2.93707 12.4085 5.3102 4.25122 5.17836C0.925905 5.49786 14.3663 5.17836 4.25122 5.17836C5.09049 5.04598 6.02228 5.04598 6.86155 5.17836C4.57751 5.9694 6.86155 6.36491 6.86155 6.62859C6.86155 6.89227 6.86155 8.34251 6.86155 9.13355C6.86155 9.92459 3.92492 9.13355 2.61976 9.13355H11.1033C11.1033 9.13355 11.1033 9.13356 11.1033 10.1883H2.94606H0C8.15729 10.1883 0.662018 11.1112 8.49302 11.1112C8.49302 11.9022 10.1245 12.1659 12.7348 11.9022C15.3451 11.6385 15.3451 11.9022 16.6503 11.9022C17.9555 11.9022 21.871 11.9022 24.4813 12.9569C27.0916 14.0116 29.3757 12.9569 28.7231 11.9022C28.7231 14.4071 32.9649 15.1982 39.817 14.2753H43.7325H50.5846H54.5001C56.4579 14.2753 58.7419 14.2753 58.7419 13.3524C60.9991 13.1523 63.3369 13.1523 65.5941 13.3524C67.5518 13.3524 69.1833 13.3524 70.8147 13.3524C72.4462 13.3524 75.3828 15.0663 79.2983 14.2753C83.2138 13.4843 85.1715 15.0663 87.4556 14.2753H90.0659C92.0236 16.1211 96.2655 14.9345 99.5284 15.33C102.791 15.7255 99.5284 16.3847 99.5284 16.5166C99.5284 16.6484 102.139 16.5166 102.465 15.1982C102.791 13.8798 105.402 15.1982 106.38 15.1982C110.622 15.1982 114.212 15.8574 118.453 15.8574C122.695 15.8574 124 15.8574 126.611 16.6484C129.221 17.4395 131.179 16.6484 133.463 16.6484H145.862L174.249 15.7255H171.639C171.639 15.7255 171.639 15.7255 173.27 15.7255C173.866 15.8644 174.541 15.9375 175.228 15.9375C175.915 15.9375 176.591 15.8644 177.186 15.7255H185.017C186.975 15.7255 187.953 15.7255 187.953 14.6708C187.953 13.6161 194.479 14.6708 197.416 14.6708C200.311 15.3124 203.577 15.631 206.878 15.5937C208.51 15.5937 210.794 15.5937 212.425 15.5937C214.057 15.5937 219.604 15.5937 223.193 15.5937C226.782 15.5937 227.435 15.5937 228.74 15.5937H230.371C232.003 16.5166 234.613 15.5937 236.571 15.5937C237.477 15.6612 238.413 15.6077 239.237 15.4412C240.061 15.2747 240.729 15.0043 241.139 14.6708H228.74C230.371 13.8798 233.308 13.7479 234.287 12.6932L260.716 11.7704C262.674 11.7704 264.958 11.7703 265.611 10.8475H269.526C272.463 10.0564 279.315 10.8475 278.989 9.39723C278.662 7.94699 273.442 5.83756 269.2 5.57388Z" fill="url(#paint0_linear_652_77)"/>
<defs>
<linearGradient id="paint0_linear_652_77" x1="0.911341" y1="8.43391" x2="279.36" y2="8.4339" gradientUnits="userSpaceOnUse">
<stop stop-color="#FFCC00"/>
<stop offset="0.628125" stop-color="#025193"/>
</linearGradient>
</defs>
</svg>
