<svg width="353" height="26" viewBox="0 0 353 26" fill="none" xmlns="http://www.w3.org/2000/svg">
<path fill-rule="evenodd" clip-rule="evenodd" d="M341.233 8.48482C337.537 7.90844 333.568 7.90844 329.872 8.48482C322.868 7.90964 315.72 7.90964 308.716 8.48482C306.366 8.48482 304.407 8.48482 302.056 8.48482C299.706 8.48482 302.056 7.13544 302.056 6.36436C302.056 5.59328 297.747 6.36436 295.788 6.36436C293.829 6.36436 295.788 5.01496 295.788 4.24388H304.799C302.899 3.59723 300.644 3.25083 298.334 3.25083C296.024 3.25083 293.77 3.59723 291.87 4.24388H276.983C276.983 4.24388 281.292 4.24389 282.468 3.08727H275.807H277.766H282.076C284.035 3.08727 286.777 3.08726 287.561 2.12341C288.344 1.15956 284.035 2.12341 282.076 2.12341C280.117 2.12341 272.673 2.12341 267.58 2.12341C264.626 2.1615 261.763 2.63123 259.353 3.4728C251.077 2.35988 242.249 2.84249 234.671 4.82218C234.671 4.82218 231.145 4.82218 229.97 4.82218H209.206H207.247C202.938 3.47279 197.453 2.8945 194.319 0.774026C197.163 1.05964 200.094 1.05964 202.938 0.774026C200.116 0.397208 197.141 0.397208 194.319 0.774026C191.185 0.774026 187.659 0.774026 184.525 0.774026H179.823H171.596C170.584 0.486401 169.435 0.334961 168.266 0.334961C167.097 0.334961 165.948 0.486401 164.936 0.774026C154.705 2.13688 144.188 2.91311 133.594 3.08727C129.528 2.41151 125.124 2.41151 121.058 3.08727C115.108 2.51054 108.986 2.51054 103.036 3.08727C88.7451 3.00874 74.5025 3.91718 60.7247 5.78604C53.6854 5.49182 46.6082 5.49182 39.569 5.78604C29.3829 4.62941 20.7639 8.09929 10.9696 7.90652C14.9622 8.37368 19.1219 8.37368 23.1145 7.90652C24.1222 7.71296 25.241 7.71296 26.2487 7.90652C23.5063 9.06314 26.2487 9.64144 26.2487 10.027C26.2487 10.4125 26.2487 12.533 26.2487 13.6896C26.2487 14.8462 22.7228 13.6896 21.1557 13.6896H31.3418C31.3418 13.6896 31.3418 13.6896 31.3418 15.2318H21.5475H0C9.7943 15.2318 18.8051 16.5812 28.2076 16.5812C28.2076 17.7378 30.1665 18.1233 33.3006 17.7378C36.4348 17.3522 36.4348 17.7378 38.0019 17.7378C39.569 17.7378 44.2702 17.7378 47.4044 19.2799C50.5386 20.8221 53.281 19.2799 52.4974 17.7378C52.4974 21.4004 57.5905 22.557 65.8177 21.2076H70.5189H78.7462H83.4474C85.798 21.2076 88.5405 21.2077 88.5405 19.8583C91.2506 19.5657 94.0575 19.5657 96.7677 19.8583C99.1183 19.8583 101.077 19.8583 103.036 19.8583C104.995 19.8583 108.521 22.3643 113.222 21.2076C117.923 20.051 120.274 22.3643 123.016 21.2076H126.151C128.501 23.9064 133.594 22.1715 137.512 22.7498C141.43 23.3281 137.512 24.292 137.512 24.4847C137.512 24.6775 140.646 24.4847 141.038 22.557C141.43 20.6293 144.564 22.557 145.739 22.557C150.832 22.557 155.142 23.5209 160.235 23.5209C165.328 23.5209 166.895 23.5209 170.029 24.6775C173.163 25.8341 175.514 24.6775 178.256 24.6775H193.144L227.228 23.3281H224.093C224.093 23.3281 224.094 23.3281 226.052 23.3281C226.767 23.5311 227.578 23.638 228.403 23.638C229.228 23.638 230.039 23.5311 230.754 23.3281H240.156C242.507 23.3281 243.682 23.3281 243.682 21.786C243.682 20.2438 251.518 21.786 255.044 21.786C258.52 22.7241 262.441 23.1898 266.405 23.1354C268.364 23.1354 271.106 23.1354 273.065 23.1354C275.024 23.1354 281.684 23.1354 285.993 23.1354C290.303 23.1354 291.086 23.1354 292.654 23.1354H294.612C296.571 24.4847 299.706 23.1354 302.056 23.1354C303.144 23.2341 304.268 23.1558 305.258 22.9123C306.247 22.6689 307.049 22.2735 307.541 21.786H292.654C294.612 20.6293 298.138 20.4366 299.314 18.8944L331.047 17.545C333.398 17.545 336.14 17.545 336.924 16.1956H341.625C345.151 15.039 353.378 16.1956 352.986 14.0752C352.595 11.9547 346.326 8.87036 341.233 8.48482Z" fill="url(#paint0_linear_358_339)"/>
<defs>
<linearGradient id="paint0_linear_358_339" x1="19.1044" y1="12.6666" x2="353.432" y2="12.6666" gradientUnits="userSpaceOnUse">
<stop stop-color="#FFCC00"/>
<stop offset="0.628125" stop-color="#025193"/>
</linearGradient>
</defs>
</svg>
