<svg width="62" height="62" viewBox="0 0 62 62" fill="none" xmlns="http://www.w3.org/2000/svg">
<path d="M61.575 27.1142C61.1672 25.2554 60.4194 23.3959 59.8754 22.5069C59.6715 22.1026 59.3315 21.5371 58.9915 20.8905C58.5837 20.1632 58.1076 19.3547 57.6998 18.6274C56.952 17.334 56.612 15.8794 56.4764 15.3946C56.3403 14.9098 56.3403 14.2631 56.2724 13.6165V13.5358C56.2046 12.8892 56.2046 12.2425 55.5924 11.5959C54.9807 10.9492 54.2329 11.0298 54.0968 11.0298C54.0968 11.0298 48.1826 10.7874 48.1144 10.7874C47.7744 10.868 47.5705 11.1104 47.4344 11.2722C47.2304 11.5953 47.2304 11.9995 47.2304 12.1614L47.1626 15.3941C47.1626 15.4747 47.1626 15.9602 47.4344 16.2832C47.6383 16.5257 47.9105 16.6063 48.0461 16.6063C48.0461 16.6063 48.0461 16.6869 48.1139 16.6869H48.25C48.25 15.5554 48.25 14.1002 48.3178 12.8881C48.3178 12.8881 48.3178 12.4032 48.5217 12.1608C48.6578 11.999 48.7934 11.9183 48.9978 11.9183H49.8134C49.8812 11.9183 49.9495 11.999 49.9495 12.0802C49.9495 12.1608 49.8817 12.3226 49.8134 12.3226H48.9978C48.8617 12.3226 48.7939 12.4032 48.7261 12.4844C48.59 12.6462 48.59 12.8886 48.59 12.8886C48.59 13.7778 48.59 16.4451 48.5222 17.1724C48.59 17.253 48.59 17.3342 48.6583 17.3342C48.93 17.5767 49.2022 17.6573 49.2022 17.6573H49.3383V14.2626C49.3383 14.2626 49.3383 13.7777 49.5422 13.5353C49.6783 13.3735 49.8139 13.2929 50.0183 13.2929H50.8339C50.9017 13.2929 50.97 13.4547 50.97 13.5353C50.97 13.6159 50.9022 13.6971 50.8339 13.6971H50.0183C49.8822 13.6971 49.8144 13.6971 49.7466 13.7777C49.6105 13.9395 49.6105 14.182 49.6105 14.182C49.6105 14.9905 49.6105 17.496 49.5427 18.2233C49.5427 18.2233 49.5427 18.3039 49.6105 18.3039C49.8822 18.6269 50.2222 18.6269 50.2905 18.6269L52.3978 18.7076C52.4656 18.7076 52.7378 18.7076 52.9417 18.4651L53.0778 18.3033C53.2817 17.6566 53.3495 17.3336 53.2139 16.5252H52.5339H51.99H51.2422V17.0912C51.2422 17.1718 51.106 17.253 51.0382 17.253C50.9704 17.253 50.8343 17.1724 50.8343 17.0912V15.7979C50.8343 15.7172 50.9021 15.6361 51.0382 15.6361C51.1743 15.6361 51.1743 15.8785 51.1743 15.8785V16.2827H51.7182C52.8061 16.2827 53.4856 16.3634 53.7578 16.0403C54.0978 15.7172 54.0295 15.2318 54.0295 15.1512L54.0973 13.8578C54.0973 13.7772 54.2334 13.696 54.3012 13.696C54.3691 13.696 54.5052 13.7767 54.5052 13.8578V15.1512C54.5052 15.1512 54.5052 15.8785 54.0973 16.2827C53.9612 16.4445 53.7573 16.5252 53.5534 16.5252H53.4856C53.4856 16.8482 53.6895 17.4143 53.2817 18.4651V18.6269C53.2817 18.7887 53.3495 19.0312 53.3495 19.193C53.3495 19.759 53.2817 20.7288 53.1456 21.6179C53.0778 22.2646 53.0095 22.9112 52.9417 23.4768C52.8739 24.3659 52.8739 25.5781 52.9417 26.5483C53.2817 26.9525 53.7573 27.5992 54.0973 28.3264C54.0973 28.4071 54.0973 28.4883 54.0295 28.5689H53.9617C53.8939 28.5689 53.8939 28.5689 53.8256 28.4883C53.4178 27.4373 52.67 26.6294 52.3978 26.3869C51.7178 25.9021 50.9022 25.4978 49.8826 25.4978C48.727 25.4978 47.9114 25.9021 47.2992 26.3869C46.9592 26.71 46.2113 27.3567 45.8036 28.1651C45.8036 28.2457 45.7358 28.2457 45.6675 28.2457H45.5997C45.5319 28.1651 45.5318 28.0839 45.5318 28.0033C45.9397 27.1948 46.6875 26.5487 47.0274 26.2251C46.3474 25.5784 44.9879 24.6893 42.8806 24.6893C41.9967 24.6893 41.2489 24.8511 40.6372 25.1742C39.8216 24.3657 38.9377 23.5578 38.122 22.9917C37.5781 23.4766 36.9664 24.1232 36.7625 24.2039C36.6264 24.2845 36.4225 24.2845 36.1508 24.2845C35.4708 24.2845 34.4512 24.0421 33.9074 23.476C33.4996 22.9911 31.8678 19.5154 31.8678 19.2729V16.6057C31.8678 16.525 31.9356 16.4438 32.0717 16.4438C32.1395 16.4438 32.2078 16.5245 32.2078 16.6863V19.273C32.2078 19.4348 33.7713 22.8295 34.1113 23.2336C34.7913 23.9609 36.3547 24.0421 36.6265 23.8803C36.8304 23.7997 37.7821 22.8294 38.4621 22.1827C39.5499 20.9705 40.6378 19.2729 41.5212 17.3328C41.589 17.171 41.6573 16.848 41.7251 16.5243C42.0651 16.1201 42.4729 15.4734 42.8807 14.5037C44.1725 11.1897 42.7446 8.44175 42.1329 7.55266C41.7251 6.66355 41.1133 5.93629 40.2972 5.45134C40.0933 5.28953 39.8894 5.2089 39.6172 5.12828C38.7333 4.4816 37.646 4.15854 36.5582 4.15854C33.1591 4.15854 30.3718 7.47254 30.3718 11.5138C30.3718 12.1605 30.4396 12.3223 30.5757 12.9684C29.8957 14.666 28.5361 17.1715 27.1766 17.9795C23.8454 17.8177 22.1459 19.5153 22.078 19.5958C22.0102 19.5152 21.3302 18.9492 20.9902 18.7874C19.1546 17.5752 17.5911 17.494 16.7072 17.6558C16.9111 18.1407 17.2512 19.1917 17.2512 20.0807C17.2512 20.1614 17.1833 20.2425 17.1151 20.2425H17.0472C16.9794 20.2425 16.9794 20.1619 16.9794 20.0807C16.9116 19.111 16.5033 18.1408 16.2994 17.6558C16.2994 17.6558 15.4155 16.12 14.3959 15.3927C13.6481 14.7477 12.9004 14.6671 12.1526 14.6671H12.0848C11.813 14.6671 10.793 14.9095 9.97745 15.5562H9.84135C9.84135 15.5562 9.77354 15.5562 9.77354 15.4756C9.70573 15.395 9.77354 15.3138 9.77354 15.2332C10.3853 14.7483 10.997 14.4247 11.4731 14.344C11.9492 13.5356 12.4926 12.4852 12.7648 11.6768C12.9688 11.1919 13.1727 10.5453 13.3766 9.89862C13.6483 9.00951 13.9883 8.20099 14.1922 7.71618C14.26 7.55437 14.3961 7.47374 14.4639 7.31193L14.5317 7.15012C14.4639 6.26101 15.0078 5.53375 15.1435 5.29127L15.0756 5.21065C14.8717 5.04884 14.7356 4.88759 14.7356 4.6446C14.5317 3.99792 14.8034 3.43244 14.8717 3.43244L15.4156 2.30091C15.4835 2.22029 15.5517 2.22029 15.6196 2.30091C15.6874 2.38153 15.7557 2.46272 15.7557 2.54334L15.2117 3.67487C15.2117 3.67487 14.94 4.07912 15.0756 4.56399C15.2117 4.96823 15.7557 5.29129 16.7073 5.93795C16.9112 6.09976 17.1151 6.18039 17.319 6.3422L17.5229 5.93795C17.5908 5.85733 17.659 5.85733 17.7269 5.93795C17.7947 6.01858 17.863 6.09976 17.863 6.18039L17.3873 7.39311C17.3195 7.47373 17.2512 7.47373 17.1834 7.39311C17.1156 7.31248 17.0473 7.2313 17.0473 7.15067L17.2512 6.66581C16.9795 6.50399 16.7751 6.34275 16.5712 6.26156C16.3673 6.18094 16.2312 6.01913 16.0951 5.9385C15.8234 5.77669 15.619 5.61544 15.4151 5.45363C15.0751 6.10031 14.8712 6.42337 14.8034 7.07001V7.31244C14.8712 7.6355 15.1434 7.79731 15.2112 7.8785L17.0468 9.09065C17.1146 9.09065 17.3868 9.33309 17.7268 9.17127H17.7946C18.0664 8.52459 19.0864 6.42334 19.4263 5.69605C19.4263 5.69605 19.4941 5.53424 19.4941 5.29181C19.4941 5.21119 19.4263 5.13 19.2902 5.04937L18.5424 4.56451C18.4746 4.48388 18.4063 4.4027 18.4746 4.32207C18.5424 4.24145 18.6107 4.24145 18.6785 4.24145L19.4263 4.72632C19.6302 4.80694 19.7663 4.96875 19.7663 5.13056C19.8341 5.45362 19.6985 5.85786 19.6985 5.85786C19.2224 6.8276 18.679 8.0403 18.2707 8.84827L18.4068 8.9289C18.4068 8.9289 18.6785 9.09071 19.0185 9.00952C19.0863 9.00952 19.1546 8.9289 19.2224 8.9289C19.4941 8.28222 20.5819 5.93849 20.9898 5.13008C20.9898 5.13008 21.1259 4.88765 21.0576 4.72584C21.0576 4.64522 20.9898 4.48341 20.8537 4.40278L20.1059 3.91791C20.0381 3.83729 19.9698 3.7561 20.0381 3.67548C20.1059 3.59486 20.1742 3.59486 20.242 3.59486L20.9898 4.07973C21.1937 4.16035 21.3298 4.32216 21.3298 4.48397C21.3976 4.80703 21.1937 5.29246 21.1937 5.29246C20.7176 6.34337 20.1059 7.63612 19.6302 8.60646L19.7663 8.68708C19.7663 8.68708 19.8341 8.60646 19.8341 8.68708C19.9702 8.76771 20.1741 8.84889 20.5142 8.76771C20.8542 8.68708 21.0581 8.20165 21.1259 8.20165L22.4176 5.37246C22.4855 5.29184 22.6216 4.88759 22.5537 4.48335C22.5537 4.24091 22.4176 3.91729 22.1459 3.67486L16.8434 0.280173C16.7073 0.199551 16.0956 -0.285882 15.2799 -0.0428852C14.4643 0.199549 14.1921 0.684417 13.9204 1.25046V1.33108C13.6487 1.89714 13.3087 2.46261 13.0365 2.78566C12.7648 3.10871 11.8131 4.24023 10.6569 4.88698C9.97691 5.29123 9.29742 5.69547 8.61736 6.09914C8.07345 6.4222 7.52955 6.74582 7.18951 6.98825C6.37388 7.47312 4.94612 8.60462 3.79044 9.97866C2.90653 11.0296 2.02304 12.5654 1.41084 14.4242C1.00303 15.7176 0.730836 17.657 0.663025 17.7382V17.8189L0.799121 17.8995C0.799121 17.9801 1.54694 19.2734 3.58648 21.5365C5.21816 25.8203 7.66561 28.3257 9.97685 29.7809C11.4047 30.67 12.7642 31.2354 13.852 31.4785C14.192 32.9331 15.0755 36.2471 16.4355 38.0252C17.1833 42.8751 21.2624 54.9178 23.1657 57.9084C25.0692 60.8988 40.1611 63.8085 39.8892 58.3933C39.6174 52.8974 37.8496 49.9877 37.8496 49.9877C37.8496 49.9877 39.2091 48.9368 38.3257 45.6234C40.8409 43.1984 42.0648 39.2384 42.0648 39.2384C42.1326 39.2384 44.5121 40.693 47.9112 40.7743C50.4946 40.8549 53.6898 40.1276 56.885 37.299C59.5363 36.5717 60.7602 35.7632 60.7602 35.7632H60.8963L60.9641 35.6826C60.9641 35.602 61.5758 33.8237 61.7119 32.4498C62.0505 30.428 61.9144 28.6499 61.5748 27.114L61.575 27.1142ZM5.08244 16.0412C5.01463 15.9606 4.94634 15.8794 5.01463 15.7988C5.01463 15.7182 5.08244 15.637 5.21854 15.7182C6.91807 16.2842 7.93755 14.4248 8.34593 13.6975C8.41374 13.6169 8.41374 13.5357 8.41374 13.5357C8.68545 13.0508 11.1327 7.95859 11.1327 7.95859C11.2006 7.87797 11.2688 7.87797 11.3367 7.87797C11.4045 7.95859 11.4045 8.03978 11.4045 8.1204C11.3367 8.36284 8.95714 13.2933 8.61711 13.7781C8.61711 13.7781 8.5493 13.8587 8.5493 13.9399C8.14196 14.5866 6.91806 16.6878 5.08244 16.0412ZM14.5319 26.1445C13.2401 26.1445 12.1523 25.7402 11.2689 25.1747C8.68545 23.5583 7.59812 20.3249 7.59812 20.3249C7.59812 20.2443 7.59812 20.1631 7.66593 20.0824C7.73374 20.0824 7.80202 20.0824 7.86984 20.1631C7.86984 20.2437 9.84105 25.8207 14.6001 25.8207C14.6679 25.8207 14.7362 25.9014 14.7362 25.9825C14.6679 26.0637 14.6001 26.1445 14.5319 26.1445ZM21.9422 34.4695H21.8744C21.8066 34.4695 21.8066 34.4695 21.7383 34.3889C19.631 30.0246 16.0958 29.3778 16.0958 29.3778C16.028 29.3778 15.9597 29.2972 15.9597 29.216C15.9597 29.1354 16.0275 29.0542 16.0958 29.0542C16.1636 29.0542 19.7666 29.7815 21.9422 34.2271C22.0779 34.3077 22.01 34.3889 21.9422 34.4695ZM36.4222 46.1086C35.4027 46.028 34.3827 46.1892 33.1592 46.5934C33.0914 47.5632 32.9553 48.6141 32.7514 49.4226C34.1109 49.0184 35.2666 48.9378 36.0826 49.1802C36.1504 49.1802 36.2187 49.342 36.1505 49.4226C36.1505 49.5033 36.0144 49.5844 35.9465 49.5033C35.1987 49.2608 34.1109 49.3414 32.7514 49.7457C34.791 52.4936 34.6549 54.2718 34.6549 54.3531C34.6549 54.4337 34.5871 54.3531 34.5188 54.3531C34.451 54.3531 34.3827 54.4337 34.3827 54.3531C34.3827 54.3531 34.5188 52.4942 32.4115 49.7457C31.3237 49.099 28.6046 49.2608 28.5363 49.2608C28.4685 49.2608 28.4002 49.1802 28.4002 49.099C28.4002 49.0184 28.468 48.9372 28.5363 48.9372C28.6724 48.9372 31.1876 48.8566 32.4115 49.4221C32.6154 48.6136 32.7515 47.5632 32.8193 46.5929C31.7315 45.9462 28.6046 45.6231 28.5363 45.6231C28.4685 45.6231 28.4003 45.5425 28.4003 45.4613C28.4003 45.3807 28.4681 45.2995 28.5363 45.2995C28.6724 45.2995 31.5954 45.6226 32.8193 46.2693C32.9554 44.6529 32.9554 43.2788 32.9554 43.2788C32.9554 43.1982 33.0232 43.117 33.0915 43.117C33.1593 43.117 33.2276 43.1977 33.2276 43.2788C33.2276 43.3595 33.2276 44.7334 33.0915 46.2693C34.3149 45.865 35.3349 45.7032 36.3545 45.865C36.4223 45.865 36.4906 45.9456 36.4906 46.0268C36.5584 46.028 36.4905 46.1086 36.4222 46.1086ZM38.6656 40.7739H38.2578C36.0144 40.7739 34.587 39.5618 34.5187 39.4806H34.4509L33.8392 37.2987L32.6157 39.5618H32.5479C32.2762 39.6425 25.6137 41.6632 23.1664 37.2987C23.0986 37.2181 23.1664 37.1369 23.2342 37.0563C23.302 36.9757 23.3703 37.0563 23.4381 37.1369C25.6815 41.0975 31.7997 39.4806 32.4796 39.2382L33.7714 36.8133C34.5192 33.0145 33.8392 28.1647 33.4997 27.1949C32.7519 26.3864 29.6928 24.6894 29.6928 24.6894C29.625 24.6088 29.5567 24.5276 29.625 24.447C29.625 24.3664 29.7611 24.3664 29.8289 24.3664C29.965 24.447 32.2763 25.7404 33.3641 26.6295C33.228 25.7404 33.5002 24.8513 33.5002 24.8513C33.5002 24.7707 33.6363 24.6895 33.7041 24.7707C33.7719 24.7707 33.8402 24.9325 33.7719 25.0132C33.7719 25.0132 33.4319 26.0641 33.7041 26.9531C33.9758 26.8725 34.3158 26.7107 34.6558 26.6301C35.6075 26.2258 36.627 25.9028 37.5788 26.064C37.6466 26.064 37.7149 26.1446 37.7149 26.3064C37.7149 26.3871 37.6471 26.4682 37.511 26.4682C36.6271 26.2258 35.6753 26.6301 34.7236 27.0343C34.4519 27.1149 34.1119 27.2767 33.8397 27.3574C34.2475 28.6507 34.8592 33.4193 34.1114 37.0563L34.7914 39.4C35.0631 39.5618 36.5588 40.6933 38.7343 40.5315C38.8021 40.5315 38.8704 40.6121 38.8704 40.6933C38.8017 40.6933 38.7339 40.7739 38.6656 40.7739ZM54.0294 34.0654C54.0294 34.0654 51.7182 36.2478 48.7947 36.1667C47.7752 36.1667 46.6191 35.8437 45.5317 35.0352C45.4639 34.9546 45.4639 34.8734 45.4639 34.7927C45.5317 34.7121 45.6 34.7121 45.6678 34.7121C49.747 37.5413 53.8255 33.823 53.8255 33.7424C53.8933 33.6618 53.9616 33.6618 54.0294 33.7424C54.0972 33.9042 54.0972 33.9848 54.0294 34.0654ZM58.1081 31.641C58.1081 31.7217 58.0402 31.8029 57.972 31.8029C56.0685 31.2368 55.9324 28.7313 55.8647 27.9234V27.7615C55.729 27.1143 55.729 21.376 55.729 21.1335C55.729 21.0529 55.7968 20.9717 55.8651 20.9717C55.9329 20.9717 56.0012 21.0524 56.0012 21.1335C56.0012 21.2142 56.0012 27.0337 56.069 27.5998V27.8422C56.1368 28.6507 56.2729 30.9137 57.9725 31.3987C58.1081 31.3987 58.1081 31.5599 58.1081 31.641Z" fill="url(#paint0_linear_358_198)"/>
<defs>
<linearGradient id="paint0_linear_358_198" x1="4.85538" y1="-0.0336157" x2="36.3839" y2="54.2737" gradientUnits="userSpaceOnUse">
<stop offset="0.492708" stop-color="#FFCC00"/>
<stop offset="1" stop-color="#F9F871"/>
</linearGradient>
</defs>
</svg>
