<svg width="34" height="25" viewBox="0 0 34 25" fill="none" xmlns="http://www.w3.org/2000/svg">
<path d="M32.8296 4.44599C32.6424 3.71138 32.2755 3.04147 31.7656 2.50328C31.2557 1.9651 30.6206 1.57753 29.9239 1.37936C27.3594 0.652344 17.0794 0.652344 17.0794 0.652344C17.0794 0.652344 6.79934 0.652344 4.23483 1.37549C3.53784 1.57302 2.90241 1.96038 2.39238 2.49866C1.88234 3.03694 1.51565 3.7072 1.32913 4.44212C0.643066 7.1491 0.643066 12.7951 0.643066 12.7951C0.643066 12.7951 0.643066 18.4411 1.32913 21.1442C1.70702 22.6369 2.82234 23.8125 4.23483 24.2108C6.79934 24.9378 17.0794 24.9378 17.0794 24.9378C17.0794 24.9378 27.3594 24.9378 29.9239 24.2108C31.34 23.8125 32.4517 22.6369 32.8296 21.1442C33.5156 18.4411 33.5156 12.7951 33.5156 12.7951C33.5156 12.7951 33.5156 7.1491 32.8296 4.44599ZM13.8141 17.977V7.61315L22.3258 12.7564L13.8141 17.977Z" fill="white"/>
</svg>
