<svg width="19" height="15" viewBox="0 0 19 15" fill="none" xmlns="http://www.w3.org/2000/svg">
<path d="M18.6035 2.21722C18.4953 1.79373 18.2832 1.40754 17.9885 1.0973C17.6938 0.787047 17.3267 0.563623 16.924 0.449382C15.4417 0.0302735 9.5 0.0302734 9.5 0.0302734C9.5 0.0302734 3.55826 0.0302734 2.076 0.447152C1.67315 0.561023 1.30588 0.784324 1.01108 1.09463C0.716289 1.40494 0.504347 1.79132 0.39654 2.21499C-7.54992e-08 3.7755 0 7.03027 0 7.03027C0 7.03027 -7.54992e-08 10.2851 0.39654 11.8433C0.614955 12.7038 1.2596 13.3815 2.076 13.6112C3.55826 14.0303 9.5 14.0303 9.5 14.0303C9.5 14.0303 15.4417 14.0303 16.924 13.6112C17.7425 13.3815 18.385 12.7038 18.6035 11.8433C19 10.2851 19 7.03027 19 7.03027C19 7.03027 19 3.7755 18.6035 2.21722ZM7.61272 10.0175V4.04301L12.5324 7.00798L7.61272 10.0175Z" fill="#FFCC00" fill-opacity="0.57"/>
</svg>
