<svg width="20" height="21" viewBox="0 0 20 21" fill="none" xmlns="http://www.w3.org/2000/svg">
<g clip-path="url(#clip0_475_122)">
<path d="M1 4.05957C1 2.95957 1.9 2.05957 3 2.05957H17C17.5304 2.05957 18.0391 2.27028 18.4142 2.64536C18.7893 3.02043 19 3.52914 19 4.05957V18.0596C19 18.59 18.7893 19.0987 18.4142 19.4738C18.0391 19.8489 17.5304 20.0596 17 20.0596H3C2.46957 20.0596 1.96086 19.8489 1.58579 19.4738C1.21071 19.0987 1 18.59 1 18.0596V4.05957ZM3 6.05957V18.0596H17V6.05957H3ZM5 0.0595703H7V2.05957H5V0.0595703ZM13 0.0595703H15V2.05957H13V0.0595703ZM5 9.05957H7V11.0596H5V9.05957ZM5 13.0596H7V15.0596H5V13.0596ZM9 9.05957H11V11.0596H9V9.05957ZM9 13.0596H11V15.0596H9V13.0596ZM13 9.05957H15V11.0596H13V9.05957ZM13 13.0596H15V15.0596H13V13.0596Z" fill="#FFCC00"/>
</g>
<defs>
<clipPath id="clip0_475_122">
<rect width="20" height="20" fill="white" transform="translate(0 0.0595703)"/>
</clipPath>
</defs>
</svg>
